<svg xmlns="http://www.w3.org/2000/svg" viewBox="0 0 800 800"><title>icon</title><g id="lasso"><path d="M600,185.44a7.16,7.16,0,0,1-5.12,6.87L557,203.52V307.16a7.14,7.14,0,0,1,7.06,6l7.16,43a7.14,7.14,0,0,1-5.88,8.23,6.64,6.64,0,0,1-1.18.1H535.56a7.14,7.14,0,0,1-7.15-7.16,7.68,7.68,0,0,1,.09-1.17l7.16-43a7.14,7.14,0,0,1,7.06-6v-99.4L401.57,249.59a7.23,7.23,0,0,1-4.07,0L204.19,192.31a7.16,7.16,0,0,1,0-13.73L397.5,121.3a7.23,7.23,0,0,1,4.07,0l193.31,57.28A7.16,7.16,0,0,1,600,185.44ZM399.53,264.2a21.54,21.54,0,0,1-6.08-.88l-101.31-30v81c0,24.59,55.67,35.79,107.39,35.79s107.4-11.2,107.4-35.79v-81l-101.29,30A21.81,21.81,0,0,1,399.53,264.2Z"/><path d="M395.39,634v17.18H362.47a5.68,5.68,0,1,0,0,11.35H437.4a5.68,5.68,0,1,0,0-11.35H404.48V634C435.17,632,457,610.46,457,581.24V538a5.68,5.68,0,1,0-11.35,0v43.23c0,24.07-19.23,41.53-45.71,41.53s-45.72-17.46-45.72-41.53V538a5.68,5.68,0,1,0-11.35,0v43.23C342.87,610.46,364.7,632,395.39,634Z"/><path d="M433.15,581.25V487.16c0-38.71-66.43-38.71-66.43,0v94.09C366.72,620,433.15,620,433.15,581.25Z"/></g></svg>