<svg xmlns="http://www.w3.org/2000/svg" xmlns:xlink="http://www.w3.org/1999/xlink" viewBox="0 0 800 800"><defs><style>.cls-1,.cls-26,.cls-27,.cls-28,.cls-4{fill:none;}.cls-2{fill:#202020;}.cls-3{clip-path:url(#clip-path);}.cls-25,.cls-26,.cls-27,.cls-28,.cls-4{stroke:#000;}.cls-4{stroke-width:5.83px;}.cls-5{clip-path:url(#clip-path-2);}.cls-6{clip-path:url(#clip-path-3);}.cls-7{clip-path:url(#clip-path-4);}.cls-8{clip-path:url(#clip-path-5);}.cls-9{clip-path:url(#clip-path-6);}.cls-10{clip-path:url(#clip-path-7);}.cls-11{clip-path:url(#clip-path-8);}.cls-12{clip-path:url(#clip-path-9);}.cls-13{clip-path:url(#clip-path-10);}.cls-14{clip-path:url(#clip-path-11);}.cls-15{clip-path:url(#clip-path-12);}.cls-16{clip-path:url(#clip-path-13);}.cls-17{clip-path:url(#clip-path-14);}.cls-18{clip-path:url(#clip-path-15);}.cls-19{clip-path:url(#clip-path-16);}.cls-20{clip-path:url(#clip-path-17);}.cls-21{clip-path:url(#clip-path-18);}.cls-22{clip-path:url(#clip-path-19);}.cls-23{clip-path:url(#clip-path-20);}.cls-24{clip-path:url(#clip-path-21);}.cls-25,.cls-26,.cls-27,.cls-28{stroke-miterlimit:10;}.cls-25{stroke-width:4.13px;}.cls-26{stroke-width:8.19px;}.cls-27{stroke-width:9.35px;}.cls-28{stroke-width:11.27px;stroke-dasharray:19.34 7.25;}</style><clipPath id="clip-path"><rect id="SVGID" class="cls-1" x="225.21" y="26" width="33.8" height="33.8"/></clipPath><clipPath id="clip-path-2"><rect id="SVGID-2" data-name="SVGID" class="cls-1" x="256.38" y="40.49" width="32.49" height="5.27"/></clipPath><clipPath id="clip-path-3"><rect id="SVGID-3" data-name="SVGID" class="cls-1" x="285.35" y="26" width="33.8" height="33.8"/></clipPath><clipPath id="clip-path-4"><rect id="SVGID-4" data-name="SVGID" class="cls-1" x="316.52" y="40.49" width="32.49" height="5.27"/></clipPath><clipPath id="clip-path-5"><rect id="SVGID-5" data-name="SVGID" class="cls-1" x="345.49" y="26" width="33.8" height="33.8"/></clipPath><clipPath id="clip-path-6"><rect id="SVGID-6" data-name="SVGID" class="cls-1" x="359.54" y="57.17" width="5.27" height="25.02"/></clipPath><clipPath id="clip-path-7"><rect id="SVGID-7" data-name="SVGID" class="cls-1" x="299.4" y="57.17" width="5.27" height="25.02"/></clipPath><clipPath id="clip-path-8"><rect id="SVGID-8" data-name="SVGID" class="cls-1" x="239.26" y="57.17" width="5.27" height="25.02"/></clipPath><clipPath id="clip-path-9"><rect id="SVGID-9" data-name="SVGID" class="cls-1" x="225.21" y="77.36" width="33.8" height="33.8"/></clipPath><clipPath id="clip-path-10"><rect id="SVGID-10" data-name="SVGID" class="cls-1" x="256.38" y="91.85" width="32.49" height="5.27"/></clipPath><clipPath id="clip-path-11"><rect id="SVGID-11" data-name="SVGID" class="cls-1" x="285.35" y="77.36" width="33.8" height="33.8"/></clipPath><clipPath id="clip-path-12"><rect id="SVGID-12" data-name="SVGID" class="cls-1" x="316.52" y="91.85" width="32.49" height="5.27"/></clipPath><clipPath id="clip-path-13"><rect id="SVGID-13" data-name="SVGID" class="cls-1" x="345.49" y="77.36" width="33.8" height="33.8"/></clipPath><clipPath id="clip-path-14"><rect id="SVGID-14" data-name="SVGID" class="cls-1" x="359.54" y="108.53" width="5.27" height="25.02"/></clipPath><clipPath id="clip-path-15"><rect id="SVGID-15" data-name="SVGID" class="cls-1" x="299.4" y="108.53" width="5.27" height="25.02"/></clipPath><clipPath id="clip-path-16"><rect id="SVGID-16" data-name="SVGID" class="cls-1" x="239.26" y="108.53" width="5.27" height="25.02"/></clipPath><clipPath id="clip-path-17"><rect id="SVGID-17" data-name="SVGID" class="cls-1" x="225.21" y="129.16" width="33.8" height="33.8"/></clipPath><clipPath id="clip-path-18"><rect id="SVGID-18" data-name="SVGID" class="cls-1" x="256.38" y="143.21" width="32.49" height="5.27"/></clipPath><clipPath id="clip-path-19"><rect id="SVGID-19" data-name="SVGID" class="cls-1" x="285.35" y="129.16" width="33.8" height="33.8"/></clipPath><clipPath id="clip-path-20"><rect id="SVGID-20" data-name="SVGID" class="cls-1" x="316.52" y="143.21" width="32.49" height="5.27"/></clipPath><clipPath id="clip-path-21"><rect id="SVGID-21" data-name="SVGID" class="cls-1" x="345.49" y="129.16" width="33.8" height="33.8"/></clipPath></defs><title>ch-pvi</title><g id="Layer_2" data-name="Layer 2"><path class="cls-2" d="M576.49,187.39A269.26,269.26,0,0,1,694,331.82a267.5,267.5,0,0,1,13.15,61.81,247.93,247.93,0,0,1,1,31.67c0,5.29-.5,10.55-.81,15.83-.06,1.32-.23,2.63-.38,3.94l-.44,3.93c-.31,2.63-.51,5.26-1,7.86l-1.22,7.83c-.18,1.31-.46,2.59-.72,3.89l-.78,3.88c-.94,5.2-2.35,10.29-3.58,15.42-.66,2.55-1.47,5.06-2.2,7.6l-1.11,3.8c-.37,1.27-.84,2.5-1.26,3.75l-2.56,7.49-2.87,7.38-1.44,3.69-1.6,3.62c-1.07,2.41-2.11,4.83-3.21,7.23-2.38,4.71-4.56,9.52-7.2,14.1A260.24,260.24,0,0,1,659,573.42l-4.65,6.42c-1.58,2.11-3.27,4.15-4.89,6.23l-2.46,3.1-1,1.22-.86,1c-1.15,1.37-2.3,2.73-3.49,4.06l-25.24-22.15c-3.16,30.26-13.06,62.06-30.23,92.68,35-.42,72.5-7.81,109.33-23.27l-25.24-22.14c1.36-1.52,2.68-3.08,4-4.63l1-1.17,1.16-1.39,2.81-3.54c1.86-2.37,3.77-4.7,5.57-7.11l5.32-7.32a300.34,300.34,0,0,0,19.09-30.69c3-5.24,5.52-10.72,8.22-16.12,1.26-2.73,2.45-5.51,3.68-8.26l1.82-4.14,1.65-4.21c1.1-2.81,2.22-5.61,3.28-8.43l2.93-8.56c.47-1.44,1-2.85,1.43-4.3l1.28-4.33c.83-2.9,1.75-5.78,2.5-8.7,1.43-5.86,3-11.68,4.1-17.62l.89-4.43c.29-1.48.61-3,.82-4.45l1.4-8.94c.52-3,.77-6,1.12-9l.5-4.49c.16-1.5.35-3,.42-4.5.38-6,.92-12,.94-18.05a286.4,286.4,0,0,0-1.16-36.1,304.53,304.53,0,0,0-46.26-135.7,308.7,308.7,0,0,0-102.86-99.81Z"/><path class="cls-2" d="M212.58,648.72A269.31,269.31,0,0,1,95.11,504.28,267.52,267.52,0,0,1,82,442.48a248.15,248.15,0,0,1-1-31.68c0-5.29.5-10.55.81-15.82.06-1.32.23-2.63.38-4l.44-3.93c.31-2.62.51-5.26,1-7.86l1.22-7.82c.18-1.31.46-2.6.72-3.9l.78-3.88c.94-5.19,2.35-10.28,3.58-15.42.66-2.55,1.47-5.06,2.2-7.6l1.11-3.8c.37-1.27.84-2.5,1.26-3.75L97,325.58l2.87-7.38,1.44-3.68,1.6-3.62c1.07-2.41,2.11-4.84,3.21-7.24,2.38-4.71,4.56-9.52,7.2-14.1A260.24,260.24,0,0,1,130,262.68l4.65-6.41c1.58-2.12,3.27-4.15,4.89-6.23l2.46-3.11,1-1.22.86-1c1.15-1.37,2.3-2.73,3.49-4.06l25.24,22.15c3.16-30.26,13.06-62.06,30.23-92.67-35,.41-72.5,7.81-109.33,23.26l25.24,22.14c-1.36,1.52-2.68,3.08-4,4.64l-1,1.16-1.16,1.39-2.81,3.54c-1.86,2.37-3.77,4.7-5.57,7.12L99,240.67a301.43,301.43,0,0,0-19.09,30.69c-3,5.24-5.52,10.73-8.22,16.12-1.26,2.74-2.45,5.51-3.68,8.26l-1.82,4.14-1.65,4.21c-1.1,2.81-2.22,5.61-3.28,8.44l-2.93,8.56c-.47,1.43-1,2.84-1.43,4.29l-1.28,4.34c-.83,2.9-1.75,5.77-2.5,8.69-1.43,5.86-3,11.69-4.1,17.62l-.89,4.44c-.29,1.47-.61,2.95-.82,4.44l-1.4,8.94c-.52,3-.77,6-1.12,9l-.5,4.49c-.16,1.5-.35,3-.42,4.5-.38,6-.92,12-.94,18.05A286.28,286.28,0,0,0,44,446,304.53,304.53,0,0,0,90.3,581.66a308.61,308.61,0,0,0,102.86,99.81Z"/><g class="cls-3"><ellipse class="cls-4" cx="242.01" cy="42.91" rx="14.31" ry="14.25"/></g><g class="cls-5"><line class="cls-4" x1="257.25" y1="43.12" x2="288.42" y2="43.12"/></g><g class="cls-6"><ellipse class="cls-4" cx="302.1" cy="42.91" rx="14.31" ry="14.25"/></g><g class="cls-7"><line class="cls-4" x1="317.4" y1="43.12" x2="348.56" y2="43.12"/></g><g class="cls-8"><ellipse class="cls-4" cx="362.2" cy="42.91" rx="14.31" ry="14.25"/></g><g class="cls-9"><line class="cls-4" x1="362.17" y1="81.75" x2="362.17" y2="57.61"/></g><g class="cls-10"><line class="cls-4" x1="302.03" y1="81.75" x2="302.03" y2="57.61"/></g><g class="cls-11"><line class="cls-4" x1="241.89" y1="81.75" x2="241.89" y2="57.61"/></g><g class="cls-12"><ellipse class="cls-4" cx="242.01" cy="94.48" rx="14.31" ry="14.25"/></g><g class="cls-13"><line class="cls-4" x1="257.25" y1="94.48" x2="288.42" y2="94.48"/></g><g class="cls-14"><ellipse class="cls-4" cx="302.1" cy="94.48" rx="14.31" ry="14.25"/></g><g class="cls-15"><line class="cls-4" x1="317.4" y1="94.48" x2="348.56" y2="94.48"/></g><g class="cls-16"><ellipse class="cls-4" cx="362.2" cy="94.48" rx="14.31" ry="14.25"/></g><g class="cls-17"><line class="cls-4" x1="362.17" y1="133.11" x2="362.17" y2="109.41"/></g><g class="cls-18"><line class="cls-4" x1="302.03" y1="133.11" x2="302.03" y2="109.41"/></g><g class="cls-19"><line class="cls-4" x1="241.89" y1="133.11" x2="241.89" y2="109.41"/></g><g class="cls-20"><ellipse class="cls-4" cx="242.01" cy="146.06" rx="14.31" ry="14.25"/></g><g class="cls-21"><line class="cls-4" x1="257.25" y1="145.84" x2="288.42" y2="145.84"/></g><g class="cls-22"><ellipse class="cls-4" cx="302.1" cy="146.06" rx="14.31" ry="14.25"/></g><g class="cls-23"><line class="cls-4" x1="317.4" y1="145.84" x2="348.56" y2="145.84"/></g><g class="cls-24"><ellipse class="cls-4" cx="362.2" cy="146.06" rx="14.31" ry="14.25"/></g><circle class="cls-25" cx="527.94" cy="58.09" r="5.55"/><circle class="cls-25" cx="425.78" cy="38.55" r="5.55"/><circle class="cls-25" cx="526" cy="146.13" r="5.55"/><circle class="cls-25" cx="482.4" cy="38.66" r="5.55"/><rect class="cls-25" x="501.13" y="97.16" width="13.87" height="5.2" transform="translate(219.35 -330.04) rotate(45)"/><rect class="cls-25" x="501.13" y="97.4" width="13.87" height="5.2" transform="translate(78.1 388.55) rotate(-45)"/><rect class="cls-25" x="414.07" y="119.25" width="13.87" height="5.2" transform="translate(209.47 -262) rotate(45)"/><rect class="cls-25" x="414.07" y="119.49" width="13.87" height="5.2" transform="translate(36.98 333.45) rotate(-45)"/><rect class="cls-25" x="475.42" y="150.79" width="13.87" height="5.2" transform="translate(249.74 -296.15) rotate(45)"/><rect class="cls-25" x="475.42" y="151.04" width="13.87" height="5.2" transform="translate(32.64 386.08) rotate(-45)"/><rect class="cls-25" x="441.61" y="89.44" width="13.87" height="5.2" transform="translate(196.45 -290.21) rotate(45)"/><rect class="cls-25" x="441.61" y="89.68" width="13.87" height="5.2" transform="translate(66.12 344.19) rotate(-45)"/><path class="cls-26" d="M394.89,93.08c3.75-7.26,15.07-24,34.61-31.88,6.71-2.7,17.89-7,31.56,4.65s8.69,29.07,23,46.1c11.25,13.4,27.77,18.64,42.77,14.56,24.32-6.61,35.55-35.27,37-39.17"/></g><g id="lasso"><path class="cls-27" d="M262.15,774.74c60.38,0,75-244.5,135.26-243.74,59.72.76,74,243.74,133.85,243.74"/><path class="cls-28" d="M441.52,584.45c41.31,5.3,70.71,19,70.71,35,0,20.66-48.73,37.4-108.84,37.4-33.82,0-77.31-10-96.83-18.7-6.51-2.92-25.37-13.22-28.72-17.36-13.89-17.23.67-40.07,26.71-27.38s2,44.74,2,44.74"/><path class="cls-28" d="M257.81,699.61c12.72-66.8,16.49-67.25,31.39-82.8,8.9-9.29,32.19-21.15,61.81-28.33"/></g></svg>