<?xml version="1.0" encoding="UTF-8" standalone="no"?>
<svg
   xmlns:dc="http://purl.org/dc/elements/1.1/"
   xmlns:cc="http://creativecommons.org/ns#"
   xmlns:rdf="http://www.w3.org/1999/02/22-rdf-syntax-ns#"
   xmlns:svg="http://www.w3.org/2000/svg"
   xmlns="http://www.w3.org/2000/svg"
   viewBox="0 0 555.10132 433.25266"
   height="433.25266"
   width="555.10132"
   xml:space="preserve"
   id="svg2"
   version="1.1"><metadata
     id="metadata8"><rdf:RDF><cc:Work
         rdf:about=""><dc:format>image/svg+xml</dc:format><dc:type
           rdf:resource="http://purl.org/dc/dcmitype/StillImage" /></cc:Work></rdf:RDF></metadata><defs
     id="defs6"><clipPath
       id="clipPath14"
       clipPathUnits="userSpaceOnUse"><path
         id="path12"
         d="M 0,0 H 1024 V 768 H 0 Z" /></clipPath><clipPath
       id="clipPath24"
       clipPathUnits="userSpaceOnUse"><path
         id="path22"
         d="M 0,0 H 1024 V 768 H 0 Z" /></clipPath></defs><g
     clip-path="url(#clipPath14)"
     transform="matrix(1.3333333,0,0,-1.3333333,-326.63867,913.9972)"
     id="g10"><g
       id="g16" /><g
       id="g18"><g
         clip-path="url(#clipPath24)"
         id="g20"><path
           id="path26"
           style="fill:#ffffff;fill-opacity:1;fill-rule:nonzero;stroke:none"
           d="M 0,0 H 1024 V 768 H 0 Z" /><g
           transform="matrix(0,1,1,0,316.3266,456)"
           id="g28"><path
             id="path30"
             style="fill:none;stroke:#000000;stroke-width:2;stroke-linecap:butt;stroke-linejoin:miter;stroke-miterlimit:4;stroke-dasharray:none;stroke-opacity:1"
             d="M 0,0 H 45.05315" /></g><g
           transform="matrix(1,0,0,-1,294.8,456)"
           id="g32"><path
             id="path34"
             style="fill:none;stroke:#000000;stroke-width:2;stroke-linecap:butt;stroke-linejoin:miter;stroke-miterlimit:4;stroke-dasharray:none;stroke-opacity:1"
             d="m 36.74816,6.304987 c 8.40665,8.406653 8.40665,22.036523 0,30.443173 -8.40665,8.40665 -22.03652,8.40665 -30.443173,0 -8.406649,-8.40665 -8.406649,-22.03652 0,-30.443173 8.406653,-8.406649 22.036523,-8.406649 30.443173,0 z" /></g><g
           transform="matrix(1,0,0,-1,249.3266,434.4734)"
           id="g36"><path
             id="path38"
             style="fill:none;stroke:#000000;stroke-width:2;stroke-linecap:butt;stroke-linejoin:miter;stroke-miterlimit:4;stroke-dasharray:none;stroke-opacity:1"
             d="M 0,0 H 45.05315" /></g><g
           transform="matrix(0,1,1,0,315.8,369)"
           id="g40"><path
             id="path42"
             style="fill:none;stroke:#000000;stroke-width:2;stroke-linecap:butt;stroke-linejoin:miter;stroke-miterlimit:4;stroke-dasharray:none;stroke-opacity:1"
             d="M 0,0 H 45.05315" /></g><g
           transform="matrix(0,1,1,0,406.3266,456)"
           id="g44"><path
             id="path46"
             style="fill:none;stroke:#000000;stroke-width:2;stroke-linecap:butt;stroke-linejoin:miter;stroke-miterlimit:4;stroke-dasharray:none;stroke-opacity:1"
             d="M 0,0 H 45.05315" /></g><g
           transform="matrix(1,0,0,-1,384.8,456)"
           id="g48"><path
             id="path50"
             style="fill:none;stroke:#000000;stroke-width:2;stroke-linecap:butt;stroke-linejoin:miter;stroke-miterlimit:4;stroke-dasharray:none;stroke-opacity:1"
             d="m 36.74816,6.304987 c 8.40665,8.406653 8.40665,22.036523 0,30.443173 -8.40665,8.40665 -22.03652,8.40665 -30.443173,0 -8.406649,-8.40665 -8.406649,-22.03652 0,-30.443173 8.406653,-8.406649 22.036523,-8.406649 30.443173,0 z" /></g><g
           transform="matrix(1,0,0,-1,339.3266,434.4734)"
           id="g52"><path
             id="path54"
             style="fill:none;stroke:#000000;stroke-width:2;stroke-linecap:butt;stroke-linejoin:miter;stroke-miterlimit:4;stroke-dasharray:none;stroke-opacity:1"
             d="M 0,0 H 45.05315" /></g><g
           transform="matrix(0,1,1,0,405.8,369)"
           id="g56"><path
             id="path58"
             style="fill:none;stroke:#000000;stroke-width:2;stroke-linecap:butt;stroke-linejoin:miter;stroke-miterlimit:4;stroke-dasharray:none;stroke-opacity:1"
             d="M 0,0 H 45.05315" /></g><g
           transform="matrix(0,1,1,0,496.3266,456)"
           id="g60"><path
             id="path62"
             style="fill:none;stroke:#000000;stroke-width:2;stroke-linecap:butt;stroke-linejoin:miter;stroke-miterlimit:4;stroke-dasharray:none;stroke-opacity:1"
             d="M 0,0 H 45.05315" /></g><g
           transform="matrix(1,0,0,-1,474.8,456)"
           id="g64"><path
             id="path66"
             style="fill:none;stroke:#000000;stroke-width:2;stroke-linecap:butt;stroke-linejoin:miter;stroke-miterlimit:4;stroke-dasharray:none;stroke-opacity:1"
             d="m 36.74816,6.304987 c 8.40665,8.406653 8.40665,22.036523 0,30.443173 -8.40665,8.40665 -22.03652,8.40665 -30.443173,0 -8.406649,-8.40665 -8.406649,-22.03652 0,-30.443173 8.406653,-8.406649 22.036523,-8.406649 30.443173,0 z" /></g><g
           transform="matrix(1,0,0,-1,429.3266,434.4734)"
           id="g68"><path
             id="path70"
             style="fill:none;stroke:#000000;stroke-width:2;stroke-linecap:butt;stroke-linejoin:miter;stroke-miterlimit:4;stroke-dasharray:none;stroke-opacity:1"
             d="M 0,0 H 45.05315" /></g><g
           transform="matrix(0,1,1,0,495.8,369)"
           id="g72"><path
             id="path74"
             style="fill:none;stroke:#000000;stroke-width:2;stroke-linecap:butt;stroke-linejoin:miter;stroke-miterlimit:4;stroke-dasharray:none;stroke-opacity:1"
             d="M 0,0 H 45.05315" /></g><g
           transform="matrix(0,1,1,0,586.3266,456)"
           id="g76"><path
             id="path78"
             style="fill:none;stroke:#000000;stroke-width:2;stroke-linecap:butt;stroke-linejoin:miter;stroke-miterlimit:4;stroke-dasharray:none;stroke-opacity:1"
             d="M 0,0 H 45.05315" /></g><g
           transform="matrix(1,0,0,-1,564.8,456)"
           id="g80"><path
             id="path82"
             style="fill:none;stroke:#000000;stroke-width:2;stroke-linecap:butt;stroke-linejoin:miter;stroke-miterlimit:4;stroke-dasharray:none;stroke-opacity:1"
             d="m 36.74816,6.304987 c 8.40665,8.406653 8.40665,22.036523 0,30.443173 -8.40665,8.40665 -22.03652,8.40665 -30.443173,0 -8.406649,-8.40665 -8.406649,-22.03652 0,-30.443173 8.406653,-8.406649 22.036523,-8.406649 30.443173,0 z" /></g><g
           transform="matrix(1,0,0,-1,519.3265,434.4734)"
           id="g84"><path
             id="path86"
             style="fill:none;stroke:#000000;stroke-width:2;stroke-linecap:butt;stroke-linejoin:miter;stroke-miterlimit:4;stroke-dasharray:none;stroke-opacity:1"
             d="M 0,0 H 45.05315" /></g><g
           transform="matrix(0,1,1,0,585.8,369)"
           id="g88"><path
             id="path90"
             style="fill:none;stroke:#000000;stroke-width:2;stroke-linecap:butt;stroke-linejoin:miter;stroke-miterlimit:4;stroke-dasharray:none;stroke-opacity:1"
             d="M 0,0 H 45.05315" /></g><g
           transform="matrix(1,0,0,-1,609.3265,434.4734)"
           id="g92"><path
             id="path94"
             style="fill:none;stroke:#000000;stroke-width:2;stroke-linecap:butt;stroke-linejoin:miter;stroke-miterlimit:4;stroke-dasharray:none;stroke-opacity:1"
             d="M 0,0 H 45.05315" /></g><g
           transform="matrix(0,1,1,0,316.3266,545)"
           id="g96"><path
             id="path98"
             style="fill:none;stroke:#000000;stroke-width:2;stroke-linecap:butt;stroke-linejoin:miter;stroke-miterlimit:4;stroke-dasharray:none;stroke-opacity:1"
             d="M 0,0 H 45.05315" /></g><g
           transform="matrix(1,0,0,-1,294.8,545)"
           id="g100"><path
             id="path102"
             style="fill:none;stroke:#000000;stroke-width:2;stroke-linecap:butt;stroke-linejoin:miter;stroke-miterlimit:4;stroke-dasharray:none;stroke-opacity:1"
             d="m 36.74816,6.304987 c 8.40665,8.406653 8.40665,22.036523 0,30.443173 -8.40665,8.40665 -22.03652,8.40665 -30.443173,0 -8.406649,-8.40665 -8.406649,-22.03652 0,-30.443173 8.406653,-8.406649 22.036523,-8.406649 30.443173,0 z" /></g><g
           transform="matrix(1,0,0,-1,249.3266,523.4734)"
           id="g104"><path
             id="path106"
             style="fill:none;stroke:#000000;stroke-width:2;stroke-linecap:butt;stroke-linejoin:miter;stroke-miterlimit:4;stroke-dasharray:none;stroke-opacity:1"
             d="M 0,0 H 45.05315" /></g><g
           transform="matrix(0,1,1,0,406.3266,545)"
           id="g108"><path
             id="path110"
             style="fill:none;stroke:#000000;stroke-width:2;stroke-linecap:butt;stroke-linejoin:miter;stroke-miterlimit:4;stroke-dasharray:none;stroke-opacity:1"
             d="M 0,0 H 45.05315" /></g><g
           transform="matrix(1,0,0,-1,384.8,545)"
           id="g112"><path
             id="path114"
             style="fill:none;stroke:#000000;stroke-width:2;stroke-linecap:butt;stroke-linejoin:miter;stroke-miterlimit:4;stroke-dasharray:none;stroke-opacity:1"
             d="m 36.74816,6.304987 c 8.40665,8.406653 8.40665,22.036523 0,30.443173 -8.40665,8.40665 -22.03652,8.40665 -30.443173,0 -8.406649,-8.40665 -8.406649,-22.03652 0,-30.443173 8.406653,-8.406649 22.036523,-8.406649 30.443173,0 z" /></g><g
           transform="matrix(1,0,0,-1,339.3266,523.4734)"
           id="g116"><path
             id="path118"
             style="fill:none;stroke:#000000;stroke-width:2;stroke-linecap:butt;stroke-linejoin:miter;stroke-miterlimit:4;stroke-dasharray:none;stroke-opacity:1"
             d="M 0,0 H 45.05315" /></g><g
           transform="matrix(0,1,1,0,496.3266,545)"
           id="g120"><path
             id="path122"
             style="fill:none;stroke:#000000;stroke-width:2;stroke-linecap:butt;stroke-linejoin:miter;stroke-miterlimit:4;stroke-dasharray:none;stroke-opacity:1"
             d="M 0,0 H 45.05315" /></g><g
           transform="matrix(1,0,0,-1,474.8,545)"
           id="g124"><path
             id="path126"
             style="fill:none;stroke:#000000;stroke-width:2;stroke-linecap:butt;stroke-linejoin:miter;stroke-miterlimit:4;stroke-dasharray:none;stroke-opacity:1"
             d="m 36.74816,6.304987 c 8.40665,8.406653 8.40665,22.036523 0,30.443173 -8.40665,8.40665 -22.03652,8.40665 -30.443173,0 -8.406649,-8.40665 -8.406649,-22.03652 0,-30.443173 8.406653,-8.406649 22.036523,-8.406649 30.443173,0 z" /></g><g
           transform="matrix(1,0,0,-1,429.3266,523.4734)"
           id="g128"><path
             id="path130"
             style="fill:none;stroke:#000000;stroke-width:2;stroke-linecap:butt;stroke-linejoin:miter;stroke-miterlimit:4;stroke-dasharray:none;stroke-opacity:1"
             d="M 0,0 H 45.05315" /></g><g
           transform="matrix(0,1,1,0,586.3266,545)"
           id="g132"><path
             id="path134"
             style="fill:none;stroke:#000000;stroke-width:2;stroke-linecap:butt;stroke-linejoin:miter;stroke-miterlimit:4;stroke-dasharray:none;stroke-opacity:1"
             d="M 0,0 H 45.05315" /></g><g
           transform="matrix(1,0,0,-1,564.8,545)"
           id="g136"><path
             id="path138"
             style="fill:none;stroke:#000000;stroke-width:2;stroke-linecap:butt;stroke-linejoin:miter;stroke-miterlimit:4;stroke-dasharray:none;stroke-opacity:1"
             d="m 36.74816,6.304987 c 8.40665,8.406653 8.40665,22.036523 0,30.443173 -8.40665,8.40665 -22.03652,8.40665 -30.443173,0 -8.406649,-8.40665 -8.406649,-22.03652 0,-30.443173 8.406653,-8.406649 22.036523,-8.406649 30.443173,0 z" /></g><g
           transform="matrix(1,0,0,-1,519.3265,523.4734)"
           id="g140"><path
             id="path142"
             style="fill:none;stroke:#000000;stroke-width:2;stroke-linecap:butt;stroke-linejoin:miter;stroke-miterlimit:4;stroke-dasharray:none;stroke-opacity:1"
             d="M 0,0 H 45.05315" /></g><g
           transform="matrix(1,0,0,-1,609.3265,523.4734)"
           id="g144"><path
             id="path146"
             style="fill:none;stroke:#000000;stroke-width:2;stroke-linecap:butt;stroke-linejoin:miter;stroke-miterlimit:4;stroke-dasharray:none;stroke-opacity:1"
             d="M 0,0 H 45.05315" /></g><g
           transform="matrix(0,1,1,0,316.3266,634)"
           id="g148"><path
             id="path150"
             style="fill:none;stroke:#000000;stroke-width:2;stroke-linecap:butt;stroke-linejoin:miter;stroke-miterlimit:4;stroke-dasharray:none;stroke-opacity:1"
             d="M 0,0 H 45.05315" /></g><g
           transform="matrix(1,0,0,-1,294.8,634)"
           id="g152"><path
             id="path154"
             style="fill:none;stroke:#000000;stroke-width:2;stroke-linecap:butt;stroke-linejoin:miter;stroke-miterlimit:4;stroke-dasharray:none;stroke-opacity:1"
             d="m 36.74816,6.304987 c 8.40665,8.406653 8.40665,22.036523 0,30.443173 -8.40665,8.40665 -22.03652,8.40665 -30.443173,0 -8.406649,-8.40665 -8.406649,-22.03652 0,-30.443173 8.406653,-8.406649 22.036523,-8.406649 30.443173,0 z" /></g><g
           transform="matrix(1,0,0,-1,249.3266,612.4734)"
           id="g156"><path
             id="path158"
             style="fill:none;stroke:#000000;stroke-width:2;stroke-linecap:butt;stroke-linejoin:miter;stroke-miterlimit:4;stroke-dasharray:none;stroke-opacity:1"
             d="M 0,0 H 45.05315" /></g><g
           transform="matrix(0,1,1,0,406.3266,634)"
           id="g160"><path
             id="path162"
             style="fill:none;stroke:#000000;stroke-width:2;stroke-linecap:butt;stroke-linejoin:miter;stroke-miterlimit:4;stroke-dasharray:none;stroke-opacity:1"
             d="M 0,0 H 45.05315" /></g><g
           transform="matrix(1,0,0,-1,384.8,634)"
           id="g164"><path
             id="path166"
             style="fill:none;stroke:#000000;stroke-width:2;stroke-linecap:butt;stroke-linejoin:miter;stroke-miterlimit:4;stroke-dasharray:none;stroke-opacity:1"
             d="m 36.74816,6.304987 c 8.40665,8.406653 8.40665,22.036523 0,30.443173 -8.40665,8.40665 -22.03652,8.40665 -30.443173,0 -8.406649,-8.40665 -8.406649,-22.03652 0,-30.443173 8.406653,-8.406649 22.036523,-8.406649 30.443173,0 z" /></g><g
           transform="matrix(1,0,0,-1,339.3266,612.4734)"
           id="g168"><path
             id="path170"
             style="fill:none;stroke:#000000;stroke-width:2;stroke-linecap:butt;stroke-linejoin:miter;stroke-miterlimit:4;stroke-dasharray:none;stroke-opacity:1"
             d="M 0,0 H 45.05315" /></g><g
           transform="matrix(0,1,1,0,496.3266,634)"
           id="g172"><path
             id="path174"
             style="fill:none;stroke:#000000;stroke-width:2;stroke-linecap:butt;stroke-linejoin:miter;stroke-miterlimit:4;stroke-dasharray:none;stroke-opacity:1"
             d="M 0,0 H 45.05315" /></g><g
           transform="matrix(1,0,0,-1,474.8,634)"
           id="g176"><path
             id="path178"
             style="fill:none;stroke:#000000;stroke-width:2;stroke-linecap:butt;stroke-linejoin:miter;stroke-miterlimit:4;stroke-dasharray:none;stroke-opacity:1"
             d="m 36.74816,6.304987 c 8.40665,8.406653 8.40665,22.036523 0,30.443173 -8.40665,8.40665 -22.03652,8.40665 -30.443173,0 -8.406649,-8.40665 -8.406649,-22.03652 0,-30.443173 8.406653,-8.406649 22.036523,-8.406649 30.443173,0 z" /></g><g
           transform="matrix(1,0,0,-1,429.3266,612.4734)"
           id="g180"><path
             id="path182"
             style="fill:none;stroke:#000000;stroke-width:2;stroke-linecap:butt;stroke-linejoin:miter;stroke-miterlimit:4;stroke-dasharray:none;stroke-opacity:1"
             d="M 0,0 H 45.05315" /></g><g
           transform="matrix(0,1,1,0,586.3266,634)"
           id="g184"><path
             id="path186"
             style="fill:none;stroke:#000000;stroke-width:2;stroke-linecap:butt;stroke-linejoin:miter;stroke-miterlimit:4;stroke-dasharray:none;stroke-opacity:1"
             d="M 0,0 H 45.05315" /></g><g
           transform="matrix(1,0,0,-1,564.8,634)"
           id="g188"><path
             id="path190"
             style="fill:none;stroke:#000000;stroke-width:2;stroke-linecap:butt;stroke-linejoin:miter;stroke-miterlimit:4;stroke-dasharray:none;stroke-opacity:1"
             d="m 36.74816,6.304987 c 8.40665,8.406653 8.40665,22.036523 0,30.443173 -8.40665,8.40665 -22.03652,8.40665 -30.443173,0 -8.406649,-8.40665 -8.406649,-22.03652 0,-30.443173 8.406653,-8.406649 22.036523,-8.406649 30.443173,0 z" /></g><g
           transform="matrix(1,0,0,-1,519.3265,612.4734)"
           id="g192"><path
             id="path194"
             style="fill:none;stroke:#000000;stroke-width:2;stroke-linecap:butt;stroke-linejoin:miter;stroke-miterlimit:4;stroke-dasharray:none;stroke-opacity:1"
             d="M 0,0 H 45.05315" /></g><g
           transform="matrix(1,0,0,-1,609.3265,612.4734)"
           id="g196"><path
             id="path198"
             style="fill:none;stroke:#000000;stroke-width:2;stroke-linecap:butt;stroke-linejoin:miter;stroke-miterlimit:4;stroke-dasharray:none;stroke-opacity:1"
             d="M 0,0 H 45.05315" /></g><g
           transform="translate(486,513)"
           id="g200"><text
             id="text204"
             style="font-variant:normal;font-weight:300;font-size:36px;font-family:Helvetica;-inkscape-font-specification:Helvetica-Light;writing-mode:lr-tb;fill:#000000;fill-opacity:1;fill-rule:nonzero;stroke:none"
             transform="scale(1,-1)"><tspan
               id="tspan202"
               y="0"
               x="0">s</tspan></text>
</g><g
           transform="translate(486,513)"
           id="g206"><text
             id="text210"
             style="font-variant:normal;font-weight:300;font-size:16px;font-family:Helvetica;-inkscape-font-specification:Helvetica-Light;writing-mode:lr-tb;fill:#000000;fill-opacity:1;fill-rule:nonzero;stroke:none"
             transform="matrix(1,0,0,-1,18,-1.839966)"><tspan
               id="tspan208"
               y="0"
               x="0">i</tspan></text>
</g></g></g></g></svg>