<?xml version="1.0" encoding="UTF-8" standalone="no"?>
<svg
   xmlns:dc="http://purl.org/dc/elements/1.1/"
   xmlns:cc="http://creativecommons.org/ns#"
   xmlns:rdf="http://www.w3.org/1999/02/22-rdf-syntax-ns#"
   xmlns:svg="http://www.w3.org/2000/svg"
   xmlns="http://www.w3.org/2000/svg"
   viewBox="0 0 555.95477 431.12668"
   height="431.12668"
   width="555.95477"
   xml:space="preserve"
   id="svg2"
   version="1.1"><metadata
     id="metadata8"><rdf:RDF><cc:Work
         rdf:about=""><dc:format>image/svg+xml</dc:format><dc:type
           rdf:resource="http://purl.org/dc/dcmitype/StillImage" /></cc:Work></rdf:RDF></metadata><defs
     id="defs6"><clipPath
       id="clipPath14"
       clipPathUnits="userSpaceOnUse"><path
         id="path12"
         d="M 0,0 H 1024 V 768 H 0 Z" /></clipPath><clipPath
       id="clipPath24"
       clipPathUnits="userSpaceOnUse"><path
         id="path22"
         d="M 0,0 H 1024 V 768 H 0 Z" /></clipPath><clipPath
       id="clipPath206"
       clipPathUnits="userSpaceOnUse"><path
         id="path204"
         d="m 310.5266,509.9469 h 11.6 v 27.05315 h -11.6 z" /></clipPath><clipPath
       id="clipPath220"
       clipPathUnits="userSpaceOnUse"><path
         id="path218"
         d="m 491.0531,421.5 h 11.6 v 27.05315 h -11.6 z" /></clipPath><clipPath
       id="clipPath234"
       clipPathUnits="userSpaceOnUse"><path
         id="path232"
         d="m 400.5266,420.9468 h 11.6 v 27.05315 h -11.6 z" /></clipPath><clipPath
       id="clipPath248"
       clipPathUnits="userSpaceOnUse"><path
         id="path246"
         d="m 311.0532,421.5 h 11.6 v 27.05315 h -11.6 z" /></clipPath><clipPath
       id="clipPath262"
       clipPathUnits="userSpaceOnUse"><path
         id="path260"
         d="m 580.5266,420.0532 h 11.6 v 27.05315 h -11.6 z" /></clipPath><clipPath
       id="clipPath276"
       clipPathUnits="userSpaceOnUse"><path
         id="path274"
         d="m 581.2,509.9469 h 11.6 v 27.05315 h -11.6 z" /></clipPath><clipPath
       id="clipPath290"
       clipPathUnits="userSpaceOnUse"><path
         id="path288"
         d="m 400.5266,508.5 h 11.6 v 27.05315 h -11.6 z" /></clipPath><clipPath
       id="clipPath304"
       clipPathUnits="userSpaceOnUse"><path
         id="path302"
         d="m 491.2,509.9469 h 11.6 v 27.05315 h -11.6 z" /></clipPath><clipPath
       id="clipPath318"
       clipPathUnits="userSpaceOnUse"><path
         id="path316"
         d="m 310.5266,598.9469 h 11.6 v 27.05315 h -11.6 z" /></clipPath><clipPath
       id="clipPath332"
       clipPathUnits="userSpaceOnUse"><path
         id="path330"
         d="m 581.2,598.9469 h 11.6 v 27.05315 h -11.6 z" /></clipPath><clipPath
       id="clipPath346"
       clipPathUnits="userSpaceOnUse"><path
         id="path344"
         d="m 400.5266,597.5 h 11.6 v 27.05315 h -11.6 z" /></clipPath><clipPath
       id="clipPath360"
       clipPathUnits="userSpaceOnUse"><path
         id="path358"
         d="m 491.2,598.9469 h 11.6 v 27.05315 h -11.6 z" /></clipPath></defs><g
     clip-path="url(#clipPath14)"
     transform="matrix(1.3333333,0,0,-1.3333333,-324.15533,911.374)"
     id="g10"><g
       id="g16" /><g
       id="g18"><g
         clip-path="url(#clipPath24)"
         id="g20"><path
           id="path26"
           style="fill:#ffffff;fill-opacity:1;fill-rule:nonzero;stroke:none"
           d="M 0,0 H 1024 V 768 H 0 Z" /><g
           transform="matrix(0,1,1,0,316.3266,456)"
           id="g28"><path
             id="path30"
             style="fill:none;stroke:#000000;stroke-width:2;stroke-linecap:butt;stroke-linejoin:miter;stroke-miterlimit:4;stroke-dasharray:none;stroke-opacity:1"
             d="M 0,0 H 45.05315" /></g><g
           transform="matrix(1,0,0,-1,294.8,456)"
           id="g32"><path
             id="path34"
             style="fill:none;stroke:#000000;stroke-width:2;stroke-linecap:butt;stroke-linejoin:miter;stroke-miterlimit:4;stroke-dasharray:none;stroke-opacity:1"
             d="m 36.74816,6.304987 c 8.40665,8.406653 8.40665,22.036523 0,30.443173 -8.40665,8.40665 -22.03652,8.40665 -30.443173,0 -8.406649,-8.40665 -8.406649,-22.03652 0,-30.443173 8.406653,-8.406649 22.036523,-8.406649 30.443173,0 z" /></g><g
           transform="matrix(1,0,0,-1,249.3266,434.4734)"
           id="g36"><path
             id="path38"
             style="fill:none;stroke:#000000;stroke-width:2;stroke-linecap:butt;stroke-linejoin:miter;stroke-miterlimit:4;stroke-dasharray:none;stroke-opacity:1"
             d="M 0,0 H 45.05315" /></g><g
           transform="matrix(0,1,1,0,315.8,369)"
           id="g40"><path
             id="path42"
             style="fill:none;stroke:#000000;stroke-width:2;stroke-linecap:butt;stroke-linejoin:miter;stroke-miterlimit:4;stroke-dasharray:none;stroke-opacity:1"
             d="M 0,0 H 45.05315" /></g><g
           transform="matrix(0,1,1,0,406.3266,456)"
           id="g44"><path
             id="path46"
             style="fill:none;stroke:#000000;stroke-width:2;stroke-linecap:butt;stroke-linejoin:miter;stroke-miterlimit:4;stroke-dasharray:none;stroke-opacity:1"
             d="M 0,0 H 45.05315" /></g><g
           transform="matrix(1,0,0,-1,384.8,456)"
           id="g48"><path
             id="path50"
             style="fill:none;stroke:#000000;stroke-width:2;stroke-linecap:butt;stroke-linejoin:miter;stroke-miterlimit:4;stroke-dasharray:none;stroke-opacity:1"
             d="m 36.74816,6.304987 c 8.40665,8.406653 8.40665,22.036523 0,30.443173 -8.40665,8.40665 -22.03652,8.40665 -30.443173,0 -8.406649,-8.40665 -8.406649,-22.03652 0,-30.443173 8.406653,-8.406649 22.036523,-8.406649 30.443173,0 z" /></g><g
           transform="matrix(1,0,0,-1,339.3266,434.4734)"
           id="g52"><path
             id="path54"
             style="fill:none;stroke:#000000;stroke-width:2;stroke-linecap:butt;stroke-linejoin:miter;stroke-miterlimit:4;stroke-dasharray:none;stroke-opacity:1"
             d="M 0,0 H 45.05315" /></g><g
           transform="matrix(0,1,1,0,405.8,369)"
           id="g56"><path
             id="path58"
             style="fill:none;stroke:#000000;stroke-width:2;stroke-linecap:butt;stroke-linejoin:miter;stroke-miterlimit:4;stroke-dasharray:none;stroke-opacity:1"
             d="M 0,0 H 45.05315" /></g><g
           transform="matrix(0,1,1,0,496.3266,456)"
           id="g60"><path
             id="path62"
             style="fill:none;stroke:#000000;stroke-width:2;stroke-linecap:butt;stroke-linejoin:miter;stroke-miterlimit:4;stroke-dasharray:none;stroke-opacity:1"
             d="M 0,0 H 45.05315" /></g><g
           transform="matrix(1,0,0,-1,474.8,456)"
           id="g64"><path
             id="path66"
             style="fill:none;stroke:#000000;stroke-width:2;stroke-linecap:butt;stroke-linejoin:miter;stroke-miterlimit:4;stroke-dasharray:none;stroke-opacity:1"
             d="m 36.74816,6.304987 c 8.40665,8.406653 8.40665,22.036523 0,30.443173 -8.40665,8.40665 -22.03652,8.40665 -30.443173,0 -8.406649,-8.40665 -8.406649,-22.03652 0,-30.443173 8.406653,-8.406649 22.036523,-8.406649 30.443173,0 z" /></g><g
           transform="matrix(1,0,0,-1,429.3266,434.4734)"
           id="g68"><path
             id="path70"
             style="fill:none;stroke:#000000;stroke-width:2;stroke-linecap:butt;stroke-linejoin:miter;stroke-miterlimit:4;stroke-dasharray:none;stroke-opacity:1"
             d="M 0,0 H 45.05315" /></g><g
           transform="matrix(0,1,1,0,495.8,369)"
           id="g72"><path
             id="path74"
             style="fill:none;stroke:#000000;stroke-width:2;stroke-linecap:butt;stroke-linejoin:miter;stroke-miterlimit:4;stroke-dasharray:none;stroke-opacity:1"
             d="M 0,0 H 45.05315" /></g><g
           transform="matrix(0,1,1,0,586.3266,456)"
           id="g76"><path
             id="path78"
             style="fill:none;stroke:#000000;stroke-width:2;stroke-linecap:butt;stroke-linejoin:miter;stroke-miterlimit:4;stroke-dasharray:none;stroke-opacity:1"
             d="M 0,0 H 45.05315" /></g><g
           transform="matrix(1,0,0,-1,564.8,456)"
           id="g80"><path
             id="path82"
             style="fill:none;stroke:#000000;stroke-width:2;stroke-linecap:butt;stroke-linejoin:miter;stroke-miterlimit:4;stroke-dasharray:none;stroke-opacity:1"
             d="m 36.74816,6.304987 c 8.40665,8.406653 8.40665,22.036523 0,30.443173 -8.40665,8.40665 -22.03652,8.40665 -30.443173,0 -8.406649,-8.40665 -8.406649,-22.03652 0,-30.443173 8.406653,-8.406649 22.036523,-8.406649 30.443173,0 z" /></g><g
           transform="matrix(1,0,0,-1,519.3265,434.4734)"
           id="g84"><path
             id="path86"
             style="fill:none;stroke:#000000;stroke-width:2;stroke-linecap:butt;stroke-linejoin:miter;stroke-miterlimit:4;stroke-dasharray:none;stroke-opacity:1"
             d="M 0,0 H 45.05315" /></g><g
           transform="matrix(0,1,1,0,585.8,369)"
           id="g88"><path
             id="path90"
             style="fill:none;stroke:#000000;stroke-width:2;stroke-linecap:butt;stroke-linejoin:miter;stroke-miterlimit:4;stroke-dasharray:none;stroke-opacity:1"
             d="M 0,0 H 45.05315" /></g><g
           transform="matrix(1,0,0,-1,609.3265,434.4734)"
           id="g92"><path
             id="path94"
             style="fill:none;stroke:#000000;stroke-width:2;stroke-linecap:butt;stroke-linejoin:miter;stroke-miterlimit:4;stroke-dasharray:none;stroke-opacity:1"
             d="M 0,0 H 45.05315" /></g><g
           transform="matrix(0,1,1,0,316.3266,545)"
           id="g96"><path
             id="path98"
             style="fill:none;stroke:#000000;stroke-width:2;stroke-linecap:butt;stroke-linejoin:miter;stroke-miterlimit:4;stroke-dasharray:none;stroke-opacity:1"
             d="M 0,0 H 45.05315" /></g><g
           transform="matrix(1,0,0,-1,294.8,545)"
           id="g100"><path
             id="path102"
             style="fill:none;stroke:#000000;stroke-width:2;stroke-linecap:butt;stroke-linejoin:miter;stroke-miterlimit:4;stroke-dasharray:none;stroke-opacity:1"
             d="m 36.74816,6.304987 c 8.40665,8.406653 8.40665,22.036523 0,30.443173 -8.40665,8.40665 -22.03652,8.40665 -30.443173,0 -8.406649,-8.40665 -8.406649,-22.03652 0,-30.443173 8.406653,-8.406649 22.036523,-8.406649 30.443173,0 z" /></g><g
           transform="matrix(1,0,0,-1,249.3266,523.4734)"
           id="g104"><path
             id="path106"
             style="fill:none;stroke:#000000;stroke-width:2;stroke-linecap:butt;stroke-linejoin:miter;stroke-miterlimit:4;stroke-dasharray:none;stroke-opacity:1"
             d="M 0,0 H 45.05315" /></g><g
           transform="matrix(0,1,1,0,406.3266,545)"
           id="g108"><path
             id="path110"
             style="fill:none;stroke:#000000;stroke-width:2;stroke-linecap:butt;stroke-linejoin:miter;stroke-miterlimit:4;stroke-dasharray:none;stroke-opacity:1"
             d="M 0,0 H 45.05315" /></g><g
           transform="matrix(1,0,0,-1,384.8,545)"
           id="g112"><path
             id="path114"
             style="fill:none;stroke:#000000;stroke-width:2;stroke-linecap:butt;stroke-linejoin:miter;stroke-miterlimit:4;stroke-dasharray:none;stroke-opacity:1"
             d="m 36.74816,6.304987 c 8.40665,8.406653 8.40665,22.036523 0,30.443173 -8.40665,8.40665 -22.03652,8.40665 -30.443173,0 -8.406649,-8.40665 -8.406649,-22.03652 0,-30.443173 8.406653,-8.406649 22.036523,-8.406649 30.443173,0 z" /></g><g
           transform="matrix(1,0,0,-1,339.3266,523.4734)"
           id="g116"><path
             id="path118"
             style="fill:none;stroke:#000000;stroke-width:2;stroke-linecap:butt;stroke-linejoin:miter;stroke-miterlimit:4;stroke-dasharray:none;stroke-opacity:1"
             d="M 0,0 H 45.05315" /></g><g
           transform="matrix(0,1,1,0,496.3266,545)"
           id="g120"><path
             id="path122"
             style="fill:none;stroke:#000000;stroke-width:2;stroke-linecap:butt;stroke-linejoin:miter;stroke-miterlimit:4;stroke-dasharray:none;stroke-opacity:1"
             d="M 0,0 H 45.05315" /></g><g
           transform="matrix(1,0,0,-1,474.8,545)"
           id="g124"><path
             id="path126"
             style="fill:none;stroke:#000000;stroke-width:2;stroke-linecap:butt;stroke-linejoin:miter;stroke-miterlimit:4;stroke-dasharray:none;stroke-opacity:1"
             d="m 36.74816,6.304987 c 8.40665,8.406653 8.40665,22.036523 0,30.443173 -8.40665,8.40665 -22.03652,8.40665 -30.443173,0 -8.406649,-8.40665 -8.406649,-22.03652 0,-30.443173 8.406653,-8.406649 22.036523,-8.406649 30.443173,0 z" /></g><g
           transform="matrix(1,0,0,-1,429.3266,523.4734)"
           id="g128"><path
             id="path130"
             style="fill:none;stroke:#000000;stroke-width:2;stroke-linecap:butt;stroke-linejoin:miter;stroke-miterlimit:4;stroke-dasharray:none;stroke-opacity:1"
             d="M 0,0 H 45.05315" /></g><g
           transform="matrix(0,1,1,0,586.3266,545)"
           id="g132"><path
             id="path134"
             style="fill:none;stroke:#000000;stroke-width:2;stroke-linecap:butt;stroke-linejoin:miter;stroke-miterlimit:4;stroke-dasharray:none;stroke-opacity:1"
             d="M 0,0 H 45.05315" /></g><g
           transform="matrix(1,0,0,-1,564.8,545)"
           id="g136"><path
             id="path138"
             style="fill:none;stroke:#000000;stroke-width:2;stroke-linecap:butt;stroke-linejoin:miter;stroke-miterlimit:4;stroke-dasharray:none;stroke-opacity:1"
             d="m 36.74816,6.304987 c 8.40665,8.406653 8.40665,22.036523 0,30.443173 -8.40665,8.40665 -22.03652,8.40665 -30.443173,0 -8.406649,-8.40665 -8.406649,-22.03652 0,-30.443173 8.406653,-8.406649 22.036523,-8.406649 30.443173,0 z" /></g><g
           transform="matrix(1,0,0,-1,519.3265,523.4734)"
           id="g140"><path
             id="path142"
             style="fill:none;stroke:#000000;stroke-width:2;stroke-linecap:butt;stroke-linejoin:miter;stroke-miterlimit:4;stroke-dasharray:none;stroke-opacity:1"
             d="M 0,0 H 45.05315" /></g><g
           transform="matrix(1,0,0,-1,609.3265,523.4734)"
           id="g144"><path
             id="path146"
             style="fill:none;stroke:#000000;stroke-width:2;stroke-linecap:butt;stroke-linejoin:miter;stroke-miterlimit:4;stroke-dasharray:none;stroke-opacity:1"
             d="M 0,0 H 45.05315" /></g><g
           transform="matrix(0,1,1,0,316.3266,634)"
           id="g148"><path
             id="path150"
             style="fill:none;stroke:#000000;stroke-width:2;stroke-linecap:butt;stroke-linejoin:miter;stroke-miterlimit:4;stroke-dasharray:none;stroke-opacity:1"
             d="M 0,0 H 45.05315" /></g><g
           transform="matrix(1,0,0,-1,294.8,634)"
           id="g152"><path
             id="path154"
             style="fill:none;stroke:#000000;stroke-width:2;stroke-linecap:butt;stroke-linejoin:miter;stroke-miterlimit:4;stroke-dasharray:none;stroke-opacity:1"
             d="m 36.74816,6.304987 c 8.40665,8.406653 8.40665,22.036523 0,30.443173 -8.40665,8.40665 -22.03652,8.40665 -30.443173,0 -8.406649,-8.40665 -8.406649,-22.03652 0,-30.443173 8.406653,-8.406649 22.036523,-8.406649 30.443173,0 z" /></g><g
           transform="matrix(1,0,0,-1,249.3266,612.4734)"
           id="g156"><path
             id="path158"
             style="fill:none;stroke:#000000;stroke-width:2;stroke-linecap:butt;stroke-linejoin:miter;stroke-miterlimit:4;stroke-dasharray:none;stroke-opacity:1"
             d="M 0,0 H 45.05315" /></g><g
           transform="matrix(0,1,1,0,406.3266,634)"
           id="g160"><path
             id="path162"
             style="fill:none;stroke:#000000;stroke-width:2;stroke-linecap:butt;stroke-linejoin:miter;stroke-miterlimit:4;stroke-dasharray:none;stroke-opacity:1"
             d="M 0,0 H 45.05315" /></g><g
           transform="matrix(1,0,0,-1,384.8,634)"
           id="g164"><path
             id="path166"
             style="fill:none;stroke:#000000;stroke-width:2;stroke-linecap:butt;stroke-linejoin:miter;stroke-miterlimit:4;stroke-dasharray:none;stroke-opacity:1"
             d="m 36.74816,6.304987 c 8.40665,8.406653 8.40665,22.036523 0,30.443173 -8.40665,8.40665 -22.03652,8.40665 -30.443173,0 -8.406649,-8.40665 -8.406649,-22.03652 0,-30.443173 8.406653,-8.406649 22.036523,-8.406649 30.443173,0 z" /></g><g
           transform="matrix(1,0,0,-1,339.3266,612.4734)"
           id="g168"><path
             id="path170"
             style="fill:none;stroke:#000000;stroke-width:2;stroke-linecap:butt;stroke-linejoin:miter;stroke-miterlimit:4;stroke-dasharray:none;stroke-opacity:1"
             d="M 0,0 H 45.05315" /></g><g
           transform="matrix(0,1,1,0,496.3266,634)"
           id="g172"><path
             id="path174"
             style="fill:none;stroke:#000000;stroke-width:2;stroke-linecap:butt;stroke-linejoin:miter;stroke-miterlimit:4;stroke-dasharray:none;stroke-opacity:1"
             d="M 0,0 H 45.05315" /></g><g
           transform="matrix(1,0,0,-1,474.8,634)"
           id="g176"><path
             id="path178"
             style="fill:none;stroke:#000000;stroke-width:2;stroke-linecap:butt;stroke-linejoin:miter;stroke-miterlimit:4;stroke-dasharray:none;stroke-opacity:1"
             d="m 36.74816,6.304987 c 8.40665,8.406653 8.40665,22.036523 0,30.443173 -8.40665,8.40665 -22.03652,8.40665 -30.443173,0 -8.406649,-8.40665 -8.406649,-22.03652 0,-30.443173 8.406653,-8.406649 22.036523,-8.406649 30.443173,0 z" /></g><g
           transform="matrix(1,0,0,-1,429.3266,612.4734)"
           id="g180"><path
             id="path182"
             style="fill:none;stroke:#000000;stroke-width:2;stroke-linecap:butt;stroke-linejoin:miter;stroke-miterlimit:4;stroke-dasharray:none;stroke-opacity:1"
             d="M 0,0 H 45.05315" /></g><g
           transform="matrix(0,1,1,0,586.3266,634)"
           id="g184"><path
             id="path186"
             style="fill:none;stroke:#000000;stroke-width:2;stroke-linecap:butt;stroke-linejoin:miter;stroke-miterlimit:4;stroke-dasharray:none;stroke-opacity:1"
             d="M 0,0 H 45.05315" /></g><g
           transform="matrix(1,0,0,-1,564.8,634)"
           id="g188"><path
             id="path190"
             style="fill:none;stroke:#000000;stroke-width:2;stroke-linecap:butt;stroke-linejoin:miter;stroke-miterlimit:4;stroke-dasharray:none;stroke-opacity:1"
             d="m 36.74816,6.304987 c 8.40665,8.406653 8.40665,22.036523 0,30.443173 -8.40665,8.40665 -22.03652,8.40665 -30.443173,0 -8.406649,-8.40665 -8.406649,-22.03652 0,-30.443173 8.406653,-8.406649 22.036523,-8.406649 30.443173,0 z" /></g><g
           transform="matrix(1,0,0,-1,519.3265,612.4734)"
           id="g192"><path
             id="path194"
             style="fill:none;stroke:#000000;stroke-width:2;stroke-linecap:butt;stroke-linejoin:miter;stroke-miterlimit:4;stroke-dasharray:none;stroke-opacity:1"
             d="M 0,0 H 45.05315" /></g><g
           transform="matrix(1,0,0,-1,609.3265,612.4734)"
           id="g196"><path
             id="path198"
             style="fill:none;stroke:#000000;stroke-width:2;stroke-linecap:butt;stroke-linejoin:miter;stroke-miterlimit:4;stroke-dasharray:none;stroke-opacity:1"
             d="M 0,0 H 45.05315" /></g></g></g><g
       id="g200"><g
         clip-path="url(#clipPath206)"
         id="g202"><g
           transform="matrix(0,-1,-1,0,316.3266,536)"
           id="g208"><path
             id="path210"
             style="fill:none;stroke:#000000;stroke-width:2;stroke-linecap:butt;stroke-linejoin:miter;stroke-miterlimit:4;stroke-dasharray:none;stroke-opacity:1"
             d="m 0,0 h 15.45315 1" /></g><path
           id="path212"
           style="fill:#000000;fill-opacity:1;fill-rule:nonzero;stroke:none"
           d="m 311.5266,520.5469 4.8,-9.6 4.8,9.6 z" /></g></g><g
       id="g214"><g
         clip-path="url(#clipPath220)"
         id="g216"><g
           transform="matrix(0,-1,-1,0,496.8531,447.5532)"
           id="g222"><path
             id="path224"
             style="fill:none;stroke:#000000;stroke-width:2;stroke-linecap:butt;stroke-linejoin:miter;stroke-miterlimit:4;stroke-dasharray:none;stroke-opacity:1"
             d="m 0,0 h 15.45315 1" /></g><path
           id="path226"
           style="fill:#000000;fill-opacity:1;fill-rule:nonzero;stroke:none"
           d="m 492.0531,432.1 4.8,-9.6 4.8,9.6 z" /></g></g><g
       id="g228"><g
         clip-path="url(#clipPath234)"
         id="g230"><g
           transform="matrix(0,1,1,0,406.3266,421.9468)"
           id="g236"><path
             id="path238"
             style="fill:none;stroke:#000000;stroke-width:2;stroke-linecap:butt;stroke-linejoin:miter;stroke-miterlimit:4;stroke-dasharray:none;stroke-opacity:1"
             d="m 0,0 h 15.45315 1" /></g><path
           id="path240"
           style="fill:#000000;fill-opacity:1;fill-rule:nonzero;stroke:none"
           d="m 411.1266,437.4 -4.8,9.6 -4.8,-9.6 z" /></g></g><g
       id="g242"><g
         clip-path="url(#clipPath248)"
         id="g244"><g
           transform="matrix(0,1,1,0,316.8532,422.5)"
           id="g250"><path
             id="path252"
             style="fill:none;stroke:#000000;stroke-width:2;stroke-linecap:butt;stroke-linejoin:miter;stroke-miterlimit:4;stroke-dasharray:none;stroke-opacity:1"
             d="m 0,0 h 15.45315 1" /></g><path
           id="path254"
           style="fill:#000000;fill-opacity:1;fill-rule:nonzero;stroke:none"
           d="m 321.6532,437.9532 -4.8,9.6 -4.8,-9.6 z" /></g></g><g
       id="g256"><g
         clip-path="url(#clipPath262)"
         id="g258"><g
           transform="matrix(0,1,1,0,586.3266,421.0532)"
           id="g264"><path
             id="path266"
             style="fill:none;stroke:#000000;stroke-width:2;stroke-linecap:butt;stroke-linejoin:miter;stroke-miterlimit:4;stroke-dasharray:none;stroke-opacity:1"
             d="m 0,0 h 15.45315 1" /></g><path
           id="path268"
           style="fill:#000000;fill-opacity:1;fill-rule:nonzero;stroke:none"
           d="m 591.1266,436.5063 -4.8,9.6 -4.8,-9.6 z" /></g></g><g
       id="g270"><g
         clip-path="url(#clipPath276)"
         id="g272"><g
           transform="matrix(0,-1,-1,0,587,536)"
           id="g278"><path
             id="path280"
             style="fill:none;stroke:#000000;stroke-width:2;stroke-linecap:butt;stroke-linejoin:miter;stroke-miterlimit:4;stroke-dasharray:none;stroke-opacity:1"
             d="m 0,0 h 15.45315 1" /></g><path
           id="path282"
           style="fill:#000000;fill-opacity:1;fill-rule:nonzero;stroke:none"
           d="m 582.2,520.5469 4.8,-9.6 4.8,9.6 z" /></g></g><g
       id="g284"><g
         clip-path="url(#clipPath290)"
         id="g286"><g
           transform="matrix(0,1,1,0,406.3266,509.5)"
           id="g292"><path
             id="path294"
             style="fill:none;stroke:#000000;stroke-width:2;stroke-linecap:butt;stroke-linejoin:miter;stroke-miterlimit:4;stroke-dasharray:none;stroke-opacity:1"
             d="m 0,0 h 15.45315 1" /></g><path
           id="path296"
           style="fill:#000000;fill-opacity:1;fill-rule:nonzero;stroke:none"
           d="m 411.1266,524.9532 -4.8,9.6 -4.8,-9.6 z" /></g></g><g
       id="g298"><g
         clip-path="url(#clipPath304)"
         id="g300"><g
           transform="matrix(0,1,1,0,497,510.9469)"
           id="g306"><path
             id="path308"
             style="fill:none;stroke:#000000;stroke-width:2;stroke-linecap:butt;stroke-linejoin:miter;stroke-miterlimit:4;stroke-dasharray:none;stroke-opacity:1"
             d="m 0,0 h 15.45315 1" /></g><path
           id="path310"
           style="fill:#000000;fill-opacity:1;fill-rule:nonzero;stroke:none"
           d="m 501.8,526.4 -4.8,9.6 -4.8,-9.6 z" /></g></g><g
       id="g312"><g
         clip-path="url(#clipPath318)"
         id="g314"><g
           transform="matrix(0,-1,-1,0,316.3266,625)"
           id="g320"><path
             id="path322"
             style="fill:none;stroke:#000000;stroke-width:2;stroke-linecap:butt;stroke-linejoin:miter;stroke-miterlimit:4;stroke-dasharray:none;stroke-opacity:1"
             d="m 0,0 h 15.45315 1" /></g><path
           id="path324"
           style="fill:#000000;fill-opacity:1;fill-rule:nonzero;stroke:none"
           d="m 311.5266,609.5469 4.8,-9.6 4.8,9.6 z" /></g></g><g
       id="g326"><g
         clip-path="url(#clipPath332)"
         id="g328"><g
           transform="matrix(0,-1,-1,0,587,625)"
           id="g334"><path
             id="path336"
             style="fill:none;stroke:#000000;stroke-width:2;stroke-linecap:butt;stroke-linejoin:miter;stroke-miterlimit:4;stroke-dasharray:none;stroke-opacity:1"
             d="m 0,0 h 15.45315 1" /></g><path
           id="path338"
           style="fill:#000000;fill-opacity:1;fill-rule:nonzero;stroke:none"
           d="m 582.2,609.5469 4.8,-9.6 4.8,9.6 z" /></g></g><g
       id="g340"><g
         clip-path="url(#clipPath346)"
         id="g342"><g
           transform="matrix(0,1,1,0,406.3266,598.5)"
           id="g348"><path
             id="path350"
             style="fill:none;stroke:#000000;stroke-width:2;stroke-linecap:butt;stroke-linejoin:miter;stroke-miterlimit:4;stroke-dasharray:none;stroke-opacity:1"
             d="m 0,0 h 15.45315 1" /></g><path
           id="path352"
           style="fill:#000000;fill-opacity:1;fill-rule:nonzero;stroke:none"
           d="m 411.1266,613.9532 -4.8,9.6 -4.8,-9.6 z" /></g></g><g
       id="g354"><g
         clip-path="url(#clipPath360)"
         id="g356"><g
           transform="matrix(0,1,1,0,497,599.9469)"
           id="g362"><path
             id="path364"
             style="fill:none;stroke:#000000;stroke-width:2;stroke-linecap:butt;stroke-linejoin:miter;stroke-miterlimit:4;stroke-dasharray:none;stroke-opacity:1"
             d="m 0,0 h 15.45315 1" /></g><path
           id="path366"
           style="fill:#000000;fill-opacity:1;fill-rule:nonzero;stroke:none"
           d="m 501.8,615.4 -4.8,9.6 -4.8,-9.6 z" /></g></g></g></svg>