<svg xmlns="http://www.w3.org/2000/svg" viewBox="0 0 800 800"><defs><style>.cls-1,.cls-2,.cls-3,.cls-4{stroke:#000;stroke-miterlimit:10;}.cls-1{stroke-width:3.68px;}.cls-2{stroke-width:3.07px;}.cls-3{stroke-width:12px;}.cls-4{fill:none;stroke-width:16px;}.cls-5{fill:#202020;}</style></defs><g id="Layer_2" data-name="Layer 2"><path class="cls-1" d="M245.29,82.22c-2.34-3.27-4.75-6.63-5.54-8.74a4.12,4.12,0,0,0-1.17-8.07h-.05c.35-.62.74-1.34,1.1-2.1,1.66-3.44,2-5.71,1.06-7.15-1.21-1.88-3.45-1.79-5.4-1.13a5.35,5.35,0,0,0-.95-3,4.51,4.51,0,0,0-3.85-1.7c-2.77,0-4.49,2.56-5.33,4.31a14.29,14.29,0,0,0-4-1.55,7.43,7.43,0,0,0-5.83,1.24,4.31,4.31,0,0,0-1.54,3.41c0,2.21,1.36,5.58,2.35,7.72A4.12,4.12,0,0,0,215,73.3a37.85,37.85,0,0,1-4.17,5.91A80.92,80.92,0,0,0,203,90.48a31.09,31.09,0,0,0-4.2,15,15.1,15.1,0,0,0,22,13.44,15.09,15.09,0,0,0,13.72,0,15.09,15.09,0,0,0,22-13.44C256.42,97.76,250.25,89.15,245.29,82.22Zm-6.9-24.57s.48.91-1.22,4.45a37.61,37.61,0,0,1-1.82,3.31H232.5l2.29-7.17C236,57.58,237.93,56.94,238.39,57.65Zm-21.33-1.23a4.74,4.74,0,0,1,3.58-.63,11.79,11.79,0,0,1,3.48,1.4l-.4,1a1.38,1.38,0,0,0,.77,1.78,1.32,1.32,0,0,0,.51.1,1.36,1.36,0,0,0,1.27-.86l.83-2.06s0,0,0-.07v0c.32-1,1.62-4,3.36-4,1.2,0,1.54.45,1.65.6.66.88.35,2.69.19,3.27l-2.71,8.48H226V64.18a1.37,1.37,0,1,0-2.74,0v1.23h-4.1c-1-2-2.63-5.76-2.63-7.68A1.58,1.58,0,0,1,217.06,56.42Zm-.43,11.74h22a1.37,1.37,0,0,1,0,2.74h-22a1.37,1.37,0,0,1,0-2.74Zm24.7,49.67a12.48,12.48,0,0,1-4.12-.71,15,15,0,0,0,3.47-4.1,1.37,1.37,0,0,0-2.38-1.37,12.45,12.45,0,0,1-4.51,4.52h0a12.32,12.32,0,0,1-12.35,0l-.05,0,0,0a12.36,12.36,0,0,1-4.44-4.47,1.38,1.38,0,0,0-2.38,1.38,15.34,15.34,0,0,0,3.47,4.09,12.34,12.34,0,0,1-16.46-11.64c0-10.06,6.6-18.45,11.42-24.57,2.35-3,4.18-5.31,4.81-7.26h3.14L218.49,81a1.38,1.38,0,0,0,.87,1.74,1.61,1.61,0,0,0,.43.07,1.37,1.37,0,0,0,1.31-1l2.7-8.17H231a25.92,25.92,0,0,0,2.29,7,1.37,1.37,0,0,0,1.2.7,1.4,1.4,0,0,0,.67-.18,1.36,1.36,0,0,0,.52-1.86,22.21,22.21,0,0,1-1.87-5.64h3.14c.7,2.59,3.15,6,6.13,10.17,4.73,6.6,10.62,14.82,10.62,21.66A12.36,12.36,0,0,1,241.33,117.83Z"/><path d="M369.75,132.93H318.59v-24a3.18,3.18,0,0,0-3.18-3.18H261.08a3.17,3.17,0,0,0-3.17,3.18v13.6H206.75a3.17,3.17,0,0,0-3.17,3.18v36.73a3.17,3.17,0,0,0,3.17,3.17h163a3.17,3.17,0,0,0,3.17-3.17V136.1A3.17,3.17,0,0,0,369.75,132.93Zm-111.84,26.3h-48V128.85h48Zm54.33-23.13v23.13h-48V112.07h48Zm54.33,23.13h-48V139.28h48Z"/><path class="cls-2" d="M259.35,28V45.54l-.32-.39a1.39,1.39,0,0,0-2-.18,1.43,1.43,0,0,0-.5,1.07V92.71a7,7,0,0,0,1.61,4.45l3.17,3.8a9.7,9.7,0,0,0,7.48,3.5h36.69A9.69,9.69,0,0,0,313,101l3.17-3.8a7,7,0,0,0,1.61-4.45V46a1.39,1.39,0,0,0-2.46-.89l-.32.39V40.47a8.37,8.37,0,0,0-7-8.22v-2.9a2.79,2.79,0,0,0,2.78-2.79V23.78A2.78,2.78,0,0,0,308,21h-8.35a2.79,2.79,0,0,0-2.78,2.78v2.78a2.8,2.8,0,0,0,2.78,2.79v2.9a8.36,8.36,0,0,0-6.88,7.22,11.45,11.45,0,0,0-2.85-.39,11.21,11.21,0,0,0-5.57,1.51V33.52A6.92,6.92,0,0,0,273.26,28v0a7,7,0,1,0-13.91,0ZM315,92.71a4.19,4.19,0,0,1-1,2.67l-3.16,3.8a6.94,6.94,0,0,1-5.35,2.5H268.83a6.92,6.92,0,0,1-5.34-2.5l-3.17-3.8a4.25,4.25,0,0,1-1-2.67V49.88l3.37,4c.06.06.12.1.18.15l.18.16h0a1,1,0,0,0,.29.1l.22.07a1.37,1.37,0,0,0,.29,0l.24,0,.23-.11a1.3,1.3,0,0,0,.26-.14l0,0a1.19,1.19,0,0,0,.15-.18.93.93,0,0,0,.16-.18l.42-.71a1.08,1.08,0,0,1,1.8,0,3.77,3.77,0,0,0,5.18,1.32l.15-.09a1.52,1.52,0,0,0,.35-.26,3.83,3.83,0,0,0,.87-1,1.07,1.07,0,0,1,1.79,0,3.84,3.84,0,0,0,5.25,1.31A3.88,3.88,0,0,0,282.1,53a1.08,1.08,0,0,1,1.8,0,3.82,3.82,0,0,0,6.55,0,1.07,1.07,0,0,1,1.49-.3,1.11,1.11,0,0,1,.31.3,3.82,3.82,0,0,0,5.24,1.31A3.91,3.91,0,0,0,298.8,53a1.07,1.07,0,0,1,1.79,0,3.84,3.84,0,0,0,5.25,1.31A4.1,4.1,0,0,0,307.15,53a1,1,0,0,1,1.43-.36,1.17,1.17,0,0,1,.35.35l.43.72.31.36,0,0a1,1,0,0,0,.25.14.78.78,0,0,0,.47.13.75.75,0,0,0,.51-.05,1,1,0,0,0,.29-.1h0a3.65,3.65,0,0,1,.36-.31l3.37-4ZM299.69,23.78H308v2.77h-8.35Zm5.57,5.57v2.78h-2.78V29.35Zm-4.17,5.56h5.56a5.56,5.56,0,0,1,5.56,5.56v8.4l-1.57,1.88a3.83,3.83,0,0,0-5.4.19,3.63,3.63,0,0,0-.47.64,1.09,1.09,0,0,1-1.5.3,1.07,1.07,0,0,1-.3-.3,3.81,3.81,0,0,0-1.9-1.57,11,11,0,0,0-5.55-9.4v-.14A5.56,5.56,0,0,1,301.09,34.91Zm-7.55,7.77A8.25,8.25,0,0,1,298.29,50a3.81,3.81,0,0,0-1.87,1.56,1.08,1.08,0,0,1-1.49.3,1.11,1.11,0,0,1-.31-.3,3.82,3.82,0,0,0-6.55,0,1.07,1.07,0,0,1-1.79,0A3.73,3.73,0,0,0,281.62,50,8.26,8.26,0,0,1,284,44.38,8.47,8.47,0,0,1,293.54,42.68Zm-16.1-13.33a4.17,4.17,0,0,1,4.17,4.17v9.36A10.89,10.89,0,0,0,279,52a1,1,0,0,1-1.06-.44A3.72,3.72,0,0,0,273.26,50V33.52A4.18,4.18,0,0,1,277.44,29.35Zm-11.13-5.57A4.18,4.18,0,0,1,270.48,28v24.1a1.06,1.06,0,0,1-.9-.48,3.81,3.81,0,0,0-5.87-.82l-1.57-1.89V28A4.18,4.18,0,0,1,266.31,23.78Z"/><path d="M217,95.1c-.45-.45-1.26-1.14-1.85-1a.73.73,0,0,0-.51.6,2.35,2.35,0,0,0,.33,1.79l.11.15A1.37,1.37,0,0,0,214,97.72l-1,4.4a1.36,1.36,0,0,0,.19,1,1.45,1.45,0,0,0,.36.38,2.39,2.39,0,0,0-1.2,1.59.71.71,0,0,0,.21.76c.47.39,1.5.09,2.09-.13a3,3,0,0,0,1.67,1,.62.62,0,0,0,.19,0,.72.72,0,0,0,.5-.6,2.35,2.35,0,0,0-.32-1.79l-.11-.16a1.38,1.38,0,0,0,1.09-1.07l.95-4.39a1.4,1.4,0,0,0-.19-1,1.58,1.58,0,0,0-.36-.37,2.35,2.35,0,0,0,1.19-1.59.72.72,0,0,0-.22-.75C218.64,94.57,217.62,94.87,217,95.1ZM214.75,104a1.47,1.47,0,0,1,.36,0,1.68,1.68,0,0,1,1.29,2,.17.17,0,0,1,0,.09,3.27,3.27,0,0,1-1.3-1,.36.36,0,0,0-.39-.08,3.21,3.21,0,0,1-1.6.33s0,0,0-.08A1.69,1.69,0,0,1,214.75,104Zm.62-6.63.15,0,2,.42a.7.7,0,0,1,.43.3.69.69,0,0,1,.1.52l-.95,4.4h0a.69.69,0,0,1-.82.53l-2-.42a.7.7,0,0,1-.44-.31.65.65,0,0,1-.09-.51l.95-4.4A.68.68,0,0,1,215.37,97.32Zm1.7-1.49a3,3,0,0,1,1.59-.33.45.45,0,0,1,0,.08,1.69,1.69,0,0,1-3.08.55,1.68,1.68,0,0,1-.23-1.26.23.23,0,0,1,0-.09,3.51,3.51,0,0,1,1.3,1A.35.35,0,0,0,217.07,95.83Z"/><path d="M244.75,91.21a.73.73,0,0,0-.53-.58,2.39,2.39,0,0,0-2,.17,1.19,1.19,0,0,0-.13-.49,1.4,1.4,0,0,0-.79-.72l-4.24-1.52a1.39,1.39,0,0,0-1.48.36c0-.06,0-.11-.07-.17A2.42,2.42,0,0,0,234.17,87a.74.74,0,0,0-.78.11c-.45.42-.29,1.47-.14,2.09-.51.38-1.3,1.09-1.22,1.7a.72.72,0,0,0,.53.58,2.29,2.29,0,0,0,.8.14,2.36,2.36,0,0,0,1.19-.32,1.37,1.37,0,0,0,.92,1.23l4.24,1.52a1.26,1.26,0,0,0,.47.08,1.39,1.39,0,0,0,1-.44,1.22,1.22,0,0,0,.07.17,2.35,2.35,0,0,0,1.35,1.22.81.81,0,0,0,.32.06.68.68,0,0,0,.46-.17c.45-.42.29-1.47.14-2.09C244,92.53,244.84,91.82,244.75,91.21ZM235,89.84a1.7,1.7,0,0,1-2.17,1h0l-.08,0c0-.16.54-.74,1.13-1.16a.35.35,0,0,0,.14-.37,3.1,3.1,0,0,1-.12-1.62l.08,0a1.78,1.78,0,0,1,1,.87A1.7,1.7,0,0,1,235,89.84Zm6.55,1.29-.34.93h0l-.34.94a.69.69,0,0,1-.88.42l-4.25-1.52a.69.69,0,0,1-.39-.36.67.67,0,0,1,0-.52l.68-1.89a.69.69,0,0,1,.65-.45.67.67,0,0,1,.24,0l4.24,1.52a.67.67,0,0,1,.39.35A.7.7,0,0,1,241.51,91.13Zm2.56.2c0,.16-.54.74-1.13,1.16a.35.35,0,0,0-.14.37,3,3,0,0,1,.12,1.62l-.08,0a1.66,1.66,0,0,1-1-.87,1.63,1.63,0,0,1-.07-1.28h0a1.7,1.7,0,0,1,2.16-1Z"/><path d="M227,98.86a2.2,2.2,0,1,0-2.2,2.19A2.19,2.19,0,0,0,227,98.86Zm-.69,0a1.51,1.51,0,1,1-1.51-1.5A1.51,1.51,0,0,1,226.29,98.86Z"/><path d="M225.76,110.59a2.2,2.2,0,1,0,2.2-2.19A2.2,2.2,0,0,0,225.76,110.59Zm.69,0a1.51,1.51,0,1,1,1.51,1.5A1.51,1.51,0,0,1,226.45,110.59Z"/><path d="M209.33,101.18a2.2,2.2,0,1,0-2.2-2.19A2.19,2.19,0,0,0,209.33,101.18Zm0-.7a1.5,1.5,0,1,1,1.5-1.49A1.5,1.5,0,0,1,209.33,100.48Z"/><path d="M205.62,109.17a2.2,2.2,0,1,0,2.2-2.19A2.19,2.19,0,0,0,205.62,109.17Zm.69,0a1.51,1.51,0,1,1,1.51,1.5A1.51,1.51,0,0,1,206.31,109.17Z"/><path d="M225.78,105.28a2.2,2.2,0,1,0-2.19,2.2A2.19,2.19,0,0,0,225.78,105.28Zm-.69,0a1.51,1.51,0,1,1-1.5-1.5A1.5,1.5,0,0,1,225.09,105.28Z"/><path d="M248.23,99.17a1.07,1.07,0,0,0-1.15-.22,3.77,3.77,0,0,0-2.61,3.09c-.11-.07-.22-.15-.35-.22a7.07,7.07,0,0,0-5.19-.15,6.59,6.59,0,0,0-4.38,3.45,3.89,3.89,0,0,0-1.05-.83,3.72,3.72,0,0,0-2.85-.26,1.05,1.05,0,0,0-.83.82c-.18,1,1.15,2.2,1.84,2.78-.25.87-.65,2.65,0,3.34a1.07,1.07,0,0,0,1.15.21,3.69,3.69,0,0,0,1.42-.81,3.8,3.8,0,0,0,1.2-2.3,2,2,0,0,0,.37.24,7,7,0,0,0,5.18.15,8.3,8.3,0,0,0,3.17-1.74,4.52,4.52,0,0,0,1.21-1.68,3.75,3.75,0,0,0,3.88,1.07,1.44,1.44,0,0,0,.54-.29.93.93,0,0,0,.3-.54c.17-1-1.16-2.2-1.85-2.77C248.51,101.64,248.91,99.86,248.23,99.17Zm-13.79,7.6a2.81,2.81,0,0,1-1.87,3.52c-.13,0-.2,0-.22,0-.23-.23-.09-1.52.29-2.7a.46.46,0,0,0-.16-.51c-1-.77-1.81-1.76-1.75-2.08l0,0a.36.36,0,0,1,.17-.09,2.81,2.81,0,0,1,3.52,1.86Zm10.16-3.13h0c.42,1.36-1.35,3.16-3.86,3.93a6.23,6.23,0,0,1-4.48-.08,1.69,1.69,0,0,1-.91-1c-.42-1.36,1.35-3.16,3.85-3.94a6.22,6.22,0,0,1,4.48.09A1.71,1.71,0,0,1,244.6,103.64Zm3-3.82c.23.23.1,1.52-.28,2.71a.47.47,0,0,0,.15.51c1,.76,1.81,1.75,1.76,2.07,0,0-.08.08-.2.11a2.81,2.81,0,0,1-3.52-1.86,2.84,2.84,0,0,1,1.87-3.52C247.49,99.8,247.56,99.81,247.57,99.82Z"/><path d="M233.57,95.39a1.48,1.48,0,0,0,0-.47,1.56,1.56,0,0,0-.64-1l-11-7.82a1.58,1.58,0,0,0-1.57-.15,2.31,2.31,0,0,0,0-.37,2.15,2.15,0,0,0-.9-1.37.67.67,0,0,0-.73-.08c-.48.26-.59,1.18-.6,1.75-.53.22-1.35.65-1.41,1.2a.66.66,0,0,0,.34.65,2.1,2.1,0,0,0,1.2.37,2.06,2.06,0,0,0,.65-.11,1.7,1.7,0,0,0,0,.45,1.56,1.56,0,0,0,.64,1l11,7.82a1.54,1.54,0,0,0,.91.29,1.66,1.66,0,0,0,.73-.17,1.81,1.81,0,0,0,0,.4,2.1,2.1,0,0,0,.89,1.37.82.82,0,0,0,.44.15.53.53,0,0,0,.29-.08c.49-.25.59-1.18.61-1.74.52-.22,1.34-.66,1.41-1.2a.7.7,0,0,0-.34-.65A2.14,2.14,0,0,0,233.57,95.39ZM231.92,94l-1.6,2.23-.91-.65,1.6-2.23Zm-1.48-1-1.6,2.23-.91-.65,1.6-2.23Zm-1.48-1-1.59,2.23-.91-.65,1.59-2.23Zm-1.47-1.05-1.6,2.23-.91-.65,1.6-2.23Zm-1.48-1-1.6,2.23-.9-.65,1.59-2.23Zm-1.47-1L222.94,91l-.91-.65,1.6-2.23Zm-1.48-1L221.46,90l-.91-.65,1.6-2.23Zm-3.63-1a1.45,1.45,0,0,1-2,.38l0,0a3.09,3.09,0,0,1,1.18-.7.35.35,0,0,0,.22-.33,3.25,3.25,0,0,1,.22-1.34l0,0a1.39,1.39,0,0,1,.6.92A1.45,1.45,0,0,1,219.43,86.76Zm2.11-.12,0,0L220,88.91l-.05,0a.87.87,0,0,1-.36-.57.84.84,0,0,1,.16-.65l.57-.8a.88.88,0,0,1,.72-.37A.9.9,0,0,1,221.54,86.64Zm11.19,9-.57.8a.88.88,0,0,1-1.23.21l0,0,1.59-2.23.05,0a.87.87,0,0,1,.36.57A.89.89,0,0,1,232.73,95.69Zm2.39.51,0,0a3.08,3.08,0,0,1-1.17.7.35.35,0,0,0-.23.33,3.09,3.09,0,0,1-.22,1.34l0,0a1.43,1.43,0,0,1-.37-2A1.45,1.45,0,0,1,235.12,96.2Z"/><path d="M350.57,57.39a13,13,0,0,1-1.06-.83l-1.65-.77-.19,0c0,.1.07.21.11.34l2.1,1-1.59.93c0,.1,0,.21.07.32.63-.36,1.26-.72,1.88-1.09Z"/><path d="M336.59,51a3,3,0,0,1-.39-.11l-.72.32c-.06.14-.12.27-.18.38l0,.05c.45-.19.89-.4,1.34-.6Z"/><path d="M340.94,59.06c.17.19.37.38.59.6l1.87,1-.48.24.28.21c.18-.09.37-.17.55-.27l1.43.71a1.42,1.42,0,0,0,.28-.22l-1.36-.67.36-.18-.53-.09-.18.09-.48-.25a3.17,3.17,0,0,1-.74-.3l-.82-.51-.78-.42A.22.22,0,0,0,340.94,59.06Z"/><path d="M352.47,55l.19.08a1.57,1.57,0,0,0,.36-.19l-.59-.26C352.45,54.71,352.46,54.84,352.47,55Z"/><path d="M358.18,50.49c0,.12,0,.24.05.36l.59.22-.49.37c0,.12.05.23.07.34.26-.19.53-.38.78-.58l1.12.39a4.32,4.32,0,0,0-.34-.45l-.48-.17.19-.15-.22-.23-.32.25Z"/><path d="M331.82,62.34,330,63l-1.19-.79a6.21,6.21,0,0,0,.29.57l.33.22.33.08c.18,0,.39.08.6.14"/><path d="M329.42,57.14l-.33-.23-1,.36a2.28,2.28,0,0,1,.53.16Z"/><path d="M326.76,57.32l.27,0h0l-.52-.38Z"/><path d="M332.56,64.6l-.41-.25a.85.85,0,0,1,.11.26Z"/><path d="M338.51,64.54l.05,0-.22-.12A.69.69,0,0,0,338.51,64.54Z"/><path d="M338.83,57.79l-.24-.13c0,.1-.09.2-.13.29l.29.17A2.66,2.66,0,0,0,338.83,57.79Z"/><path d="M349.78,63.36l-.23-.14a3.53,3.53,0,0,1-.34-.21c-.38-.16-.77-.33-1.15-.51a.77.77,0,0,1-.21.19l-.08,0,2,.86A2.23,2.23,0,0,0,349.78,63.36Z"/><path d="M346.91,62.51v.06l.06,0Z"/><path d="M348.52,59.4c0,.13,0,.26,0,.38l1.53.68-.89.51c.17,0,.32.08.46.1l.68-.38.15-.46,0,0Z"/><path d="M362.54,58.26l-.48-.14-.42.18v0l.33.1Z"/><path d="M327.94,67.52a3.83,3.83,0,0,1-.64.35"/><path d="M360.62,62.15c.08.17-.2-1.12,0-1,.08-1.08.93-.36,1.6-.62a3.84,3.84,0,0,1,2.74.57c-.93-2-2.09-1.86-2.3-2.33a14.19,14.19,0,0,1-1.12-4.16A1.89,1.89,0,0,1,363.2,53c-1.64-1.57-2.43-1-3.05-1.73s-2.65-2.76-3.6-3.09-1.73-.87-2.07-.67.53,3.11.71,3.34a8.86,8.86,0,0,0-.59,1.86c0,.07.11.13.16.19a2,2,0,0,1,1-.41l.47-.74.28,1.09a3.24,3.24,0,0,1,.07.91c.09.16.19.32.28.45a4.52,4.52,0,0,0,1.36-1.3l.9-1.25v1.54a4.23,4.23,0,0,1-.93,2.85l0,0,2.15,2.27a5,5,0,0,1,.59.85c.1.2-.14.83-.28,1.51l.76-.31m-5.72-11.24a.39.39,0,0,1,.13-.55.4.4,0,1,1,.42.69A.39.39,0,0,1,355.64,49.13Z"/><path d="M348.39,55.16a1.29,1.29,0,0,0,1.47-.64l.51-1,.38,1.07a6.09,6.09,0,0,1,.34,1.36,16.66,16.66,0,0,0,3.83,2.17l.2-.6v0a.4.4,0,0,1,.07-.51l0,0a1.13,1.13,0,0,0,0-.25c-.06-.1-.23-.31-.36-.47a4.29,4.29,0,0,1-1.13-2,1.53,1.53,0,0,1,.2-.94l.18-.31a8.43,8.43,0,0,0-.75-.79c-.55-.46.78-1.2.08-2.65a3.75,3.75,0,0,1-1.37,1.34l-2.75-1.91a5.53,5.53,0,0,1-.75-.72c-.27-.35.47-2.8-.77-3.34a2.23,2.23,0,0,1-.77,2.27,3.81,3.81,0,0,1-2.8,0c1.31,1.75,2.42,1.4,2.72,1.82a14.1,14.1,0,0,1,1.93,3.86,1.89,1.89,0,0,1-1.33,1.94A5.8,5.8,0,0,0,348.39,55.16Z"/><path d="M328.69,75.29a3.8,3.8,0,0,1,.75-2.69,2.19,2.19,0,0,1,2.39-.13c-.18-1.34-2.73-1.3-3-1.65a5.06,5.06,0,0,1-.48-.92l-1.1-3.17a3.88,3.88,0,0,1,1.67-1c-1.21-1.07-2.28,0-2.58-.64a2.12,2.12,0,0,0-.11-.21l-.28.65-.44-1A5,5,0,0,1,325,62a9.3,9.3,0,0,0-1-.11c-.11-.27-2.3-2.38-2.63-2.17s-.23,1.15-.37,2.15.81,3.84,1.1,4.61-.5,1.33.14,3.5a1.88,1.88,0,0,1,2.23-.75,14,14,0,0,1,3.19,2.91C328,72.57,327.36,73.55,328.69,75.29Zm-6.5-13.19a.4.4,0,1,1,.13-.55A.39.39,0,0,1,322.19,62.1Z"/><path d="M346.35,69.65c-.16-.13-.33-.29-.53-.47a2.07,2.07,0,0,1-1.91.48,14.39,14.39,0,0,1-3.35-2.73c-.34-.37.24-1.38-1.19-3a3.78,3.78,0,0,1-.55,2.73,1.75,1.75,0,0,1-1.29.48h0s-.07.29-.14.72c.84.32,1.93.32,2.12.54a4.85,4.85,0,0,1,.53.89l1.27,3.09a3.77,3.77,0,0,1-1.61,1c1.27,1,2.27-.14,2.61.49a14.45,14.45,0,0,0,1.29,1.77,1.87,1.87,0,0,1-1.08,1,7.16,7.16,0,0,0,2.29.34c.13.26,2.43,2.23,2.75,2s.16-1.16.24-2.16-1-3.78-1.36-4.54S346.64,71.07,346.35,69.65Zm.27,7a.41.41,0,1,1-.1.57A.42.42,0,0,1,346.62,76.67Z"/><path d="M335.24,48.66a4.33,4.33,0,0,1-.25.47,2.08,2.08,0,0,0,.3-.12C335.28,48.9,335.26,48.78,335.24,48.66Z"/><path d="M333.15,70.22c0,.29.92,3.17,1.32,3.14s.73-.91,1.32-1.73S336.87,67.86,337,67s1.06-.94,1.51-3.16a1.91,1.91,0,0,1-2.33-.37,14.05,14.05,0,0,1-1.46-4.07c-.07-.31.32-.65.52-1.41a2.9,2.9,0,0,1-.74-.44l-.08-.07a2.24,2.24,0,0,1-1.07.73,1.68,1.68,0,0,1-1.27-.21l-.18.13a1.85,1.85,0,0,0-.4.37l0,0a2.44,2.44,0,0,1,.87.39l.68.47-.42.22c.22.2.39.36.41.47a4.65,4.65,0,0,1,0,1l-.38,2.51a2.72,2.72,0,0,0,.25.32,4.79,4.79,0,0,0,.58.09,4.28,4.28,0,0,1,2.22.66,1.57,1.57,0,0,1,.52.82l.21.84-.83-.25a1.73,1.73,0,0,0-1.85.25,3.42,3.42,0,0,0-.31,2.37l.23,1.52m.8,1.07a.41.41,0,0,1,.81-.06.41.41,0,0,1-.81.06Z"/><path d="M327.18,55a2.06,2.06,0,0,1-1-.1l.5.4.3.26a6.46,6.46,0,0,1,2.29.26l1,.45-1,.45a1.57,1.57,0,0,0-.62.5,11.61,11.61,0,0,1,1.18,1.45l.27-.06a3.48,3.48,0,0,1,.84-.14c.33-.83,1.24-.66,2.17-2.69a1.89,1.89,0,0,1-2.18-.89,13.75,13.75,0,0,1-.5-4.29c0-.49,1-.8,1.24-2.75l-.12-.09a3.55,3.55,0,0,1-2.18,1.37,2.21,2.21,0,0,1-1.89-1.47c-.74,1.13,1.21,2.77,1.18,3.21a5.46,5.46,0,0,1-.23,1Z"/><path d="M326.9,56.41c.05.1.1.16.15.17s.38-.11.61-.34A1.49,1.49,0,0,0,326.9,56.41Z"/><path d="M333,68.83a3.84,3.84,0,0,1,.44-2.76,2.19,2.19,0,0,1,2.36-.4c-.34-1.32-2.87-1-3.17-1.3a5.38,5.38,0,0,1-.59-.86l-1.46-3a3.78,3.78,0,0,1,1.55-1.14c-1.32-.93-2.26.27-2.63-.34a14.79,14.79,0,0,0-1.39-1.69,1.88,1.88,0,0,1,1-1,7.23,7.23,0,0,0-2.31-.21c-.14-.25-2.55-2.09-2.86-1.84s-.09,1.16-.11,2.17,1.23,3.72,1.62,4.46-.35,1.37.54,3.46a1.89,1.89,0,0,1,2.13-1,14.28,14.28,0,0,1,3.5,2.52m-7.18-9.44a.41.41,0,0,1,.64-.5.42.42,0,0,1-.07.57A.4.4,0,0,1,324.41,56.41Z"/><path d="M352.44,56.68l.38.15a1.56,1.56,0,0,0,.71.08.5.5,0,0,1,.09-.2,11.52,11.52,0,0,1,.16-1.67l-.11-.08a2.48,2.48,0,0,1-1.22.63c0,.21,0,.41,0,.59Z"/><path d="M361.32,71.47a15.87,15.87,0,0,0,1.79-1.27,1.92,1.92,0,0,1,.95,1.09,7.08,7.08,0,0,0,.37-2.28c.27-.12,2.28-2.39,2.06-2.72s-1.16-.17-2.16-.27-3.8,1-4.57,1.29c-.6.26-1-.07-2,0a7.73,7.73,0,0,1-.69,1.24,2.61,2.61,0,0,1,0,1.27,14.09,14.09,0,0,1-2.78,3.3c-.38.34-1.38-.26-3.07,1.14a3.81,3.81,0,0,1,2.73.64,2.19,2.19,0,0,1,.22,2.38c1.34-.23,1.18-2.78,1.53-3.06a4.82,4.82,0,0,1,.9-.52l3.11-1.23a3.76,3.76,0,0,1,1,1.63C361.81,72.82,360.68,71.79,361.32,71.47Zm3.42-4.17a.4.4,0,0,1-.56-.1.41.41,0,1,1,.67-.46A.39.39,0,0,1,364.74,67.3Z"/><path d="M348,67.68c.16-.92-.58-3.47-.9-4.45a3.29,3.29,0,0,1-.65-.22l-1-.51,1-.39a1.38,1.38,0,0,0,.64-.45h0a14.14,14.14,0,0,1-1-1.4,2.29,2.29,0,0,1-1.22,0,2.33,2.33,0,0,1-1.36-.53l-.65-.51.41-.17a19.49,19.49,0,0,1-1.66-1.83c-.31-.4.36-1.36-.92-3.14a5.47,5.47,0,0,1-.35,2,10.88,10.88,0,0,1,0,2.42l.07.06a5.38,5.38,0,0,1,.46.93l1,3.2a3.74,3.74,0,0,1-1.7.9c1.18,1.11,2.28.06,2.56.72a15.55,15.55,0,0,0,1.13,1.87,1.85,1.85,0,0,1-1.15.87,7.1,7.1,0,0,0,2.25.54c.1.27,2.22,2.43,2.57,2.24S347.86,68.67,348,67.68Zm-1.31.33a.42.42,0,0,1,.15-.56.41.41,0,0,1,.55.15.41.41,0,0,1-.7.41Z"/><path d="M331.2,46.3c-.07,1.35,2.44,1.78,2.63,2.18a4.83,4.83,0,0,1,.32,1l.49,3.31a3.72,3.72,0,0,1-1.81.63c1,1.28,2.24.42,2.41,1.11a14.28,14.28,0,0,0,.83,2,1.87,1.87,0,0,1-1.28.68,7.19,7.19,0,0,0,2.14.88c.06.29,1.82,2.76,2.19,2.61s.43-1.09.75-2-.08-3.92-.23-4.74c-.1-.55.18-.87.38-1.53l-.06-.33.13,0a5,5,0,0,0,.06-1.65,1.88,1.88,0,0,1-2.33.33,14,14,0,0,1-2.6-3.45c-.24-.45.57-1.28-.42-3.24a3.89,3.89,0,0,1-1.23,2.51A2.21,2.21,0,0,1,331.2,46.3ZM339.05,59a.4.4,0,0,1-.52-.23.41.41,0,0,1,.23-.53.41.41,0,0,1,.29.76Z"/><path d="M356.51,68.44c.72-.7,1.71-3.53,1.95-4.33s1.21-.74,2-2.85a1.89,1.89,0,0,1-2.23-.77,14.3,14.3,0,0,1-.75-4.25c0-.51,1.09-.89,1.1-3.08-.46.63-1.37,1.61-2.24,1.67a2.19,2.19,0,0,1-2-1.35c-.67,1.17,1.37,2.69,1.36,3.13a5.16,5.16,0,0,1-.17,1l-1.06,3.18a3.93,3.93,0,0,1-1.91-.27c.31,1.59,1.81,1.39,1.65,2.08a14.75,14.75,0,0,0-.18,2.18,1.85,1.85,0,0,1-1.45,0,7.34,7.34,0,0,0,1.51,1.75c-.07.29.37,3.28.77,3.33S355.8,69.14,356.51,68.44Zm-1.25-.51a.41.41,0,0,1,.45-.36.4.4,0,1,1-.45.36Z"/><path d="M340.6,52.83c.26,1.33,2.8,1.14,3.08,1.48a4.55,4.55,0,0,1,.54.89l1.27,3.1a3.71,3.71,0,0,1-1.61,1c1.27,1,2.28-.13,2.61.5a14.45,14.45,0,0,0,1.29,1.77,1.84,1.84,0,0,1-1.08,1,7,7,0,0,0,2.29.35c.13.26,2.42,2.24,2.75,2s.16-1.16.24-2.16-1-3.79-1.36-4.55.43-1.35-.33-3.48a1.91,1.91,0,0,1-2.19.88,14.67,14.67,0,0,1-3.34-2.73c-.34-.38.24-1.39-1.18-3a3.81,3.81,0,0,1-.6,2.73A2.2,2.2,0,0,1,340.6,52.83Zm10.77,9.91a.41.41,0,1,1-.57-.1A.41.41,0,0,1,351.37,62.74Z"/><path d="M323.05,49.4a.25.25,0,0,0-.13-.49,1.62,1.62,0,0,0-1.05.77,1.66,1.66,0,0,0-.09,1.21.24.24,0,0,0,.23.18l.08,0a.23.23,0,0,0,.16-.31,1.22,1.22,0,0,1,.07-.82A1.1,1.1,0,0,1,323.05,49.4Z"/><path d="M322.69,48.52a.25.25,0,0,0-.12-.49A2.4,2.4,0,0,0,321,49.09a2.46,2.46,0,0,0-.23,1.73A.25.25,0,0,0,321,51h.07a.27.27,0,0,0,.18-.31,1.89,1.89,0,0,1,.17-1.34A2,2,0,0,1,322.69,48.52Z"/><path d="M326.71,71.11a1.38,1.38,0,0,0,.58.11,1.74,1.74,0,0,0,.64-.12.25.25,0,0,0,.13-.32.26.26,0,0,0-.33-.14,1.16,1.16,0,0,1-.82,0,1.11,1.11,0,0,1-.58-.69.25.25,0,1,0-.47.17A1.59,1.59,0,0,0,326.71,71.11Z"/><path d="M367.41,61.77a.24.24,0,0,0,0,.35.26.26,0,0,0,.3,0l.06,0a1.6,1.6,0,0,0,.42-1.23,1.68,1.68,0,0,0-.6-1,.25.25,0,0,0-.35,0,.24.24,0,0,0,0,.35,1.11,1.11,0,0,1,.41.71A1.13,1.13,0,0,1,367.41,61.77Z"/><path d="M368.53,62.66a.1.1,0,0,0,.05,0,2.4,2.4,0,0,0,.71-1.77,2.45,2.45,0,0,0-.78-1.56.26.26,0,0,0-.36,0,.25.25,0,0,0,0,.36,1.9,1.9,0,0,1,.61,1.2,1.93,1.93,0,0,1-.58,1.4.25.25,0,0,0,0,.36A.24.24,0,0,0,368.53,62.66Z"/><path d="M336.58,42.22a.26.26,0,0,0,.36,0,1.18,1.18,0,0,1,.77-.3,1.13,1.13,0,0,1,.78.44.25.25,0,0,0,.36,0,.24.24,0,0,0,0-.35,1.61,1.61,0,0,0-1.15-.61,1.65,1.65,0,0,0-1.13.44A.25.25,0,0,0,336.58,42.22Z"/><path d="M339.48,41.7a.28.28,0,0,0,.08-.11.26.26,0,0,0-.05-.25,2.21,2.21,0,0,0-3.29-.43.24.24,0,0,0,0,.35.25.25,0,0,0,.36,0,1.87,1.87,0,0,1,1.28-.42,1.92,1.92,0,0,1,1.29.79A.26.26,0,0,0,339.48,41.7Z"/><path d="M354,42.17a.26.26,0,0,0,.33.14,1.16,1.16,0,0,1,.82,0,1.15,1.15,0,0,1,.57.7.26.26,0,0,0,.32.16l.05,0a.24.24,0,0,0,.1-.29,1.6,1.6,0,0,0-.83-1,1.74,1.74,0,0,0-1.22,0A.26.26,0,0,0,354,42.17Z"/><path d="M356.91,42.77l.07,0a.25.25,0,0,0,.1-.28,2.34,2.34,0,0,0-1.16-1.52,2.4,2.4,0,0,0-1.73-.13.25.25,0,0,0-.16.32.26.26,0,0,0,.32.16,1.71,1.71,0,0,1,2.25,1.31A.24.24,0,0,0,356.91,42.77Z"/><path d="M384,75a1.57,1.57,0,0,0-1-.76l-61.58,6.6a1.13,1.13,0,0,0-.73.38l-.19,0,0,.26a1.06,1.06,0,0,0-.09.56,1.33,1.33,0,0,0,.1.34.46.46,0,0,1,0,.2,27.82,27.82,0,0,0,6.07,15.44l0,0a38.8,38.8,0,0,0,6,6.07,13.16,13.16,0,0,1,2,2,.83.83,0,0,0,.16.21,7.85,7.85,0,0,1,1.73,3.52,31.57,31.57,0,0,0,1.7,9.38,1.17,1.17,0,0,0,.09.24,16.33,16.33,0,0,0,7.94,9.28,1.12,1.12,0,0,0,.41.2c.39.18.79.35,1.21.5a17.68,17.68,0,0,0,15-1.25l.13-.08a17.67,17.67,0,0,0,6.62-6.78,18.74,18.74,0,0,0,1.1-2.41c3.18-8.63.5-18-1.38-22.77a48.39,48.39,0,0,0-10.55-16.27.52.52,0,0,1,.31-.89l24.44-2.62c.3,0,.44-1.12.44-1.42m-32.58,28.4-6,6.79a.54.54,0,0,1-.75,0l-6.27-5.56a.51.51,0,0,1,0-.74l6-6.75a.52.52,0,0,1,.74,0l6.25,5.51A.54.54,0,0,1,351.42,103.4Zm-4.86-8.66,5.35-6a.53.53,0,0,1,.75,0l6.17,5.52a.53.53,0,0,1,0,.74l-5.28,6a.52.52,0,0,1-.74,0l-6.24-5.5A.54.54,0,0,1,346.56,94.74Zm7.27,10.08,6.29,5.54a.53.53,0,0,1,0,.75l-6,6.81a.53.53,0,0,1-.75,0l-6.26-5.55a.51.51,0,0,1,0-.74l6-6.8A.52.52,0,0,1,353.83,104.82Zm1.43-2.41,5.26-5.94a.54.54,0,0,1,.75,0l6.26,5.6a.54.54,0,0,1,0,.75l-5.23,5.89a.54.54,0,0,1-.75,0l-6.28-5.55A.53.53,0,0,1,355.26,102.41ZM367,97c.06.13.11.26.16.4a.53.53,0,0,1-.85.58l-3.61-3.23a.54.54,0,0,1-.05-.75l1.43-1.61a.53.53,0,0,1,.87.1A46.5,46.5,0,0,1,367,97Zm-3.84-6.92L361,92.53a.54.54,0,0,1-.75,0l-6.15-5.51a.54.54,0,0,1-.05-.75l3.24-3.62a.54.54,0,0,1,.78,0,45.08,45.08,0,0,1,5.14,6.78A.53.53,0,0,1,363.2,90.09Zm-7.9-10.21.48.45a.53.53,0,0,1,0,.73l-3.37,3.77a.53.53,0,0,1-.75,0l-3.88-3.47a.54.54,0,0,1,.3-.93l6.77-.72A.53.53,0,0,1,355.3,79.88Zm-11.18,1.2,6.09,5.45a.52.52,0,0,1,.05.74l-5.37,6a.51.51,0,0,1-.74,0l-6.25-5.5a.53.53,0,0,1,0-.75l5.2-5.91a.52.52,0,0,1,.34-.18l.31,0A.51.51,0,0,1,344.12,81.08ZM339,82.37l-2.84,3.23a.54.54,0,0,1-.75.05l-3-2.61a.53.53,0,0,1,.3-.92l5.8-.62A.52.52,0,0,1,339,82.37Zm-11,12.46a.54.54,0,0,1-.75,0l-.78-.7-.15-.11a.57.57,0,0,1-.15-.16,25.31,25.31,0,0,1-3.57-10.17.53.53,0,0,1,.47-.59l5.22-.56a.54.54,0,0,1,.4.13l5.22,4.6a.51.51,0,0,1,0,.74Zm1.66,1.48,6-6.78a.53.53,0,0,1,.75,0L342.66,95a.52.52,0,0,1,0,.74l-6,6.74a.52.52,0,0,1-.74.05l-6.16-5.46A.52.52,0,0,1,329.73,96.31Zm8.81,13.49a4.5,4.5,0,0,0-.13-.85.53.53,0,0,1,.86-.52l3.92,3.47a.53.53,0,0,1,0,.75l-3,3.4a.53.53,0,0,1-.91-.23A33.05,33.05,0,0,1,338.54,109.8Zm8.24,16.38a.54.54,0,0,1-.67.11,13.68,13.68,0,0,1-5.14-5.73c-.16-.33-.32-.67-.47-1a.54.54,0,0,1,.09-.56l4.31-4.86a.51.51,0,0,1,.74,0l6.26,5.54a.53.53,0,0,1,0,.75Zm12.54,1.18a15.5,15.5,0,0,1-9.93.36.53.53,0,0,1-.24-.86l4.45-5a.53.53,0,0,1,.75,0l5.23,4.63a.53.53,0,0,1-.15.89Zm9.09-9.16a16.8,16.8,0,0,1-1,2.11,15.58,15.58,0,0,1-4.82,5.32.53.53,0,0,1-.65,0l-6.15-5.46a.52.52,0,0,1-.05-.74l6.05-6.81a.54.54,0,0,1,.75,0l5.7,5a.53.53,0,0,1,.15.57Zm.11-3.39-4.46-3.94a.54.54,0,0,1-.05-.75l4.43-5a.53.53,0,0,1,.92.26,28.31,28.31,0,0,1,0,9.1A.53.53,0,0,1,368.52,114.81Z"/><circle class="cls-3" cx="454.81" cy="551.21" r="8.92"/><circle class="cls-3" cx="275.94" cy="593" r="8.92"/><circle class="cls-3" cx="428.26" cy="751.29" r="8.92"/><circle class="cls-3" cx="489.55" cy="634.27" r="8.92"/><circle class="cls-3" cx="366.96" cy="578.55" r="8.92"/><rect class="cls-3" x="496.24" y="755.59" width="22.29" height="8.36" transform="translate(685.85 -136.24) rotate(45)"/><rect class="cls-3" x="496.24" y="755.99" width="22.29" height="8.36" transform="translate(-388.91 581.42) rotate(-45)"/><rect class="cls-3" x="441" y="657.93" width="22.29" height="8.36" transform="translate(600.61 -125.79) rotate(45)"/><rect class="cls-3" x="441" y="658.32" width="22.29" height="8.36" transform="translate(-336.03 513.76) rotate(-45)"/><rect class="cls-3" x="257.12" y="708.08" width="22.29" height="8.36" transform="translate(582.22 18.93) rotate(45)"/><rect class="cls-3" x="257.12" y="708.47" width="22.29" height="8.36" transform="translate(-425.35 398.42) rotate(-45)"/><rect class="cls-3" x="347.75" y="758.79" width="22.29" height="8.36" transform="translate(644.62 -30.31) rotate(45)"/><rect class="cls-3" x="347.75" y="759.18" width="22.29" height="8.36" transform="translate(-434.66 477.36) rotate(-45)"/><rect class="cls-3" x="330.67" y="660.16" width="22.29" height="8.36" transform="translate(569.87 -47.12) rotate(45)"/><rect class="cls-3" x="330.67" y="660.55" width="22.29" height="8.36" transform="translate(-369.92 436.4) rotate(-45)"/><path class="cls-4" d="M222,677c4.31-8.06,22.14-39.17,60.81-53.24,11.81-4.3,51.69-16.35,83.58,3.34,30.48,18.82,19.38,46.73,51.27,74.11,29.25,25.12,74,23.34,95.28,23.41A215.63,215.63,0,0,0,547,722"/><path class="cls-5" d="M557.18,186.39A267.75,267.75,0,0,1,687.79,392.63a246.12,246.12,0,0,1,1,31.67c0,5.29-.49,10.55-.81,15.83-.06,1.32-.23,2.63-.37,3.94l-.44,3.93c-.32,2.63-.52,5.26-1,7.86L685,463.69c-.18,1.31-.47,2.59-.73,3.89l-.78,3.88c-.93,5.2-2.35,10.29-3.58,15.42-.66,2.55-1.47,5.06-2.19,7.6l-1.12,3.8c-.36,1.27-.84,2.5-1.25,3.75l-2.56,7.49-2.87,7.38-1.44,3.69-1.6,3.62c-1.08,2.41-2.12,4.83-3.22,7.23-2.38,4.71-4.56,9.52-7.19,14.1a260.33,260.33,0,0,1-16.73,26.88l-4.65,6.42c-1.58,2.11-3.26,4.15-4.89,6.23l-2.46,3.1-1,1.22-.87,1c-1.14,1.37-2.29,2.73-3.48,4.06l-25.24-22.15C594,602.58,584.05,634.38,566.89,665c35-.42,72.49-7.81,109.33-23.27L651,619.59c1.36-1.52,2.67-3.08,4-4.63l1-1.17,1.15-1.39,2.81-3.54c1.86-2.37,3.77-4.7,5.58-7.11l5.31-7.32a298.68,298.68,0,0,0,19.1-30.69c3-5.24,5.52-10.72,8.22-16.12,1.26-2.73,2.45-5.51,3.67-8.26l1.83-4.14,1.65-4.21c1.09-2.81,2.21-5.61,3.27-8.43l2.93-8.56c.48-1.44,1-2.85,1.43-4.3l1.28-4.33c.83-2.9,1.75-5.78,2.51-8.7,1.42-5.86,3-11.68,4.09-17.62l.89-4.43c.3-1.48.62-3,.83-4.45l1.39-8.94c.52-3,.77-6,1.13-9l.49-4.49c.17-1.5.35-3,.43-4.5.38-6,.91-12,.93-18.05a284.53,284.53,0,0,0-1.16-36.1A306.56,306.56,0,0,0,576.6,153.63Z"/><path class="cls-5" d="M193.26,647.72A269.31,269.31,0,0,1,75.79,503.28a267.51,267.51,0,0,1-13.14-61.8,248.15,248.15,0,0,1-1-31.68c0-5.29.5-10.55.82-15.82.06-1.32.23-2.63.37-4l.44-3.93c.31-2.62.52-5.26,1-7.86l1.22-7.82c.18-1.31.47-2.6.73-3.9l.78-3.88c.93-5.19,2.35-10.28,3.58-15.42.66-2.55,1.47-5.06,2.19-7.6l1.12-3.8c.36-1.27.84-2.5,1.25-3.75l2.56-7.49,2.87-7.38L82,313.52l1.6-3.62c1.08-2.41,2.11-4.84,3.21-7.24,2.39-4.71,4.57-9.52,7.2-14.1a260.33,260.33,0,0,1,16.73-26.88l4.65-6.41c1.58-2.12,3.26-4.15,4.89-6.23l2.45-3.11,1-1.22.86-1c1.15-1.37,2.3-2.73,3.49-4.06l25.24,22.15c3.16-30.26,13.07-62.06,30.23-92.68-35,.42-72.49,7.82-109.33,23.27l25.24,22.14c-1.36,1.52-2.67,3.08-4,4.64l-1,1.16-1.15,1.39-2.81,3.54c-1.86,2.37-3.77,4.7-5.58,7.12l-5.31,7.31a299.76,299.76,0,0,0-19.1,30.69c-3,5.24-5.52,10.73-8.22,16.12-1.26,2.74-2.45,5.51-3.67,8.26l-1.83,4.14-1.65,4.21c-1.09,2.81-2.21,5.61-3.27,8.44L39,320.09c-.47,1.43-1,2.84-1.42,4.29l-1.28,4.34c-.84,2.9-1.75,5.77-2.51,8.69-1.42,5.86-3,11.69-4.09,17.62l-.89,4.44c-.3,1.47-.62,2.95-.83,4.44l-1.39,8.94c-.52,3-.77,6-1.13,9l-.5,4.49c-.16,1.5-.34,3-.42,4.5-.38,6-.91,12-.93,18.05A284.41,284.41,0,0,0,24.73,445,306.56,306.56,0,0,0,173.84,680.47Z"/><path d="M443.66,70.19H421.42a4.48,4.48,0,0,1-4.52-4.52V46.51A4.48,4.48,0,0,1,421.42,42h22.42a4.48,4.48,0,0,1,4.52,4.52V65.67A4.75,4.75,0,0,1,443.66,70.19Zm-21.33-5.42h20.6V47.42h-20.6Z"/><path d="M479.63,82.85h-60a2.72,2.72,0,1,1,0-5.43h60a2.72,2.72,0,0,1,0,5.43Z"/><path d="M479.63,95h-60a2.72,2.72,0,1,1,0-5.43h60a2.72,2.72,0,0,1,0,5.43Z"/><path d="M479.63,107.25h-60a2.71,2.71,0,1,1,0-5.42h60a2.71,2.71,0,0,1,0,5.42Z"/><path d="M455.59,119.36h-36a2.71,2.71,0,1,1,0-5.42h36a2.71,2.71,0,1,1,0,5.42Z"/><path d="M517.05,50.31h-5.78V44.88A7.26,7.26,0,0,0,504,37.65h-5.78V32.23A7.25,7.25,0,0,0,491,25H408.41a7.25,7.25,0,0,0-7.23,7.23V133.46a7.25,7.25,0,0,0,7.23,7.23h5.78v5.43a7.26,7.26,0,0,0,7.23,7.23h5.79v5.42a7.25,7.25,0,0,0,7.23,7.23h82.61a7.25,7.25,0,0,0,7.23-7.23V57.54A7.25,7.25,0,0,0,517.05,50.31ZM422.33,138H491a4.48,4.48,0,0,0,4.52-4.52V45.61h7.59v99.6h-80.8Zm-13-5.42V33h80.81v99.61Zm26,18.07H504a4.46,4.46,0,0,0,4.52-4.51V58.44h7.6v99.61H435.34Z"/></g></svg>