<svg xmlns="http://www.w3.org/2000/svg" viewBox="0 0 800 800"><defs><style>.cls-1,.cls-2{stroke:#000;stroke-miterlimit:10;}.cls-1{stroke-width:12px;}.cls-2{fill:none;stroke-width:16px;}.cls-3{fill:#202020;}.cls-4{fill:#fdfdfd;}.cls-5{fill:#e8ca67;}.cls-6{fill:#b17c2d;}.cls-7{fill:#0e0c09;}.cls-8{fill:#100e0a;}.cls-9{fill:#0b0a07;}.cls-10{fill:#13110c;}.cls-11{fill:#0d0b07;}.cls-12{fill:#5d4016;}.cls-13{fill:#0a0904;}.cls-14{fill:#8d6322;}.cls-15{fill:#b27c2d;}.cls-16{fill:#5f4217;}.cls-17{fill:#eae6e1;}.cls-18{fill:#f0eeeb;}.cls-19{fill:#ab772b;}</style></defs><g id="Layer_2" data-name="Layer 2"><circle class="cls-1" cx="455.81" cy="551.21" r="8.92"/><circle class="cls-1" cx="276.94" cy="593" r="8.92"/><circle class="cls-1" cx="429.26" cy="751.29" r="8.92"/><circle class="cls-1" cx="490.55" cy="634.27" r="8.92"/><circle class="cls-1" cx="367.96" cy="578.55" r="8.92"/><rect class="cls-1" x="497.24" y="755.59" width="22.29" height="8.36" transform="translate(686.14 -136.95) rotate(45)"/><rect class="cls-1" x="497.24" y="755.99" width="22.29" height="8.36" transform="translate(-388.61 582.13) rotate(-45)"/><rect class="cls-1" x="442" y="657.93" width="22.29" height="8.36" transform="translate(600.91 -126.5) rotate(45)"/><rect class="cls-1" x="442" y="658.32" width="22.29" height="8.36" transform="translate(-335.74 514.47) rotate(-45)"/><rect class="cls-1" x="258.12" y="708.08" width="22.29" height="8.36" transform="translate(582.51 18.22) rotate(45)"/><rect class="cls-1" x="258.12" y="708.47" width="22.29" height="8.36" transform="translate(-425.06 399.13) rotate(-45)"/><rect class="cls-1" x="348.75" y="758.79" width="22.29" height="8.36" transform="translate(644.91 -31.01) rotate(45)"/><rect class="cls-1" x="348.75" y="759.18" width="22.29" height="8.36" transform="translate(-434.37 478.06) rotate(-45)"/><rect class="cls-1" x="331.67" y="660.16" width="22.29" height="8.36" transform="translate(570.17 -47.83) rotate(45)"/><rect class="cls-1" x="331.67" y="660.55" width="22.29" height="8.36" transform="translate(-369.63 437.1) rotate(-45)"/><path class="cls-2" d="M223,677c4.31-8.06,22.14-39.17,60.81-53.24,11.81-4.3,51.69-16.35,83.58,3.34,30.48,18.82,19.38,46.73,51.27,74.11,29.25,25.12,74,23.34,95.28,23.41A215.63,215.63,0,0,0,548,722"/><path class="cls-3" d="M558.18,186.39A267.75,267.75,0,0,1,688.79,392.63a246.12,246.12,0,0,1,1,31.67c0,5.29-.49,10.55-.81,15.83-.06,1.32-.23,2.63-.37,3.94l-.44,3.93c-.32,2.63-.52,5.26-1,7.86L686,463.69c-.18,1.31-.47,2.59-.73,3.89l-.78,3.88c-.93,5.2-2.35,10.29-3.58,15.42-.66,2.55-1.47,5.06-2.19,7.6l-1.12,3.8c-.36,1.27-.84,2.5-1.25,3.75l-2.56,7.49-2.87,7.38-1.44,3.69-1.6,3.62c-1.08,2.41-2.12,4.83-3.22,7.23-2.38,4.71-4.56,9.52-7.19,14.1a260.33,260.33,0,0,1-16.73,26.88l-4.65,6.42c-1.58,2.11-3.26,4.15-4.89,6.23l-2.46,3.1-1,1.22-.87,1c-1.14,1.37-2.29,2.73-3.48,4.06l-25.24-22.15C595,602.58,585.05,634.38,567.89,665c35-.42,72.49-7.81,109.33-23.27L652,619.59c1.36-1.52,2.67-3.08,4-4.63l1-1.17,1.15-1.39,2.81-3.54c1.86-2.37,3.77-4.7,5.58-7.11l5.31-7.32a298.68,298.68,0,0,0,19.1-30.69c3-5.24,5.52-10.72,8.22-16.12,1.26-2.73,2.45-5.51,3.67-8.26l1.83-4.14,1.65-4.21c1.09-2.81,2.21-5.61,3.27-8.43l2.93-8.56c.48-1.44,1-2.85,1.43-4.3l1.28-4.33c.83-2.9,1.75-5.78,2.51-8.7,1.42-5.86,3-11.68,4.09-17.62l.89-4.43c.3-1.48.62-3,.83-4.45l1.39-8.94c.52-3,.77-6,1.13-9l.49-4.49c.17-1.5.35-3,.43-4.5.38-6,.91-12,.93-18.05a284.53,284.53,0,0,0-1.16-36.1A306.56,306.56,0,0,0,577.6,153.63Z"/><path class="cls-3" d="M194.26,647.72A269.31,269.31,0,0,1,76.79,503.28a267.51,267.51,0,0,1-13.14-61.8,248.15,248.15,0,0,1-1-31.68c0-5.29.5-10.55.82-15.82.06-1.32.23-2.63.37-4l.44-3.93c.31-2.62.52-5.26,1-7.86l1.22-7.82c.18-1.31.47-2.6.73-3.9l.78-3.88c.93-5.19,2.35-10.28,3.58-15.42.66-2.55,1.47-5.06,2.19-7.6l1.12-3.8c.36-1.27.84-2.5,1.25-3.75l2.56-7.49,2.87-7.38L83,313.52l1.6-3.62c1.08-2.41,2.11-4.84,3.21-7.24,2.39-4.71,4.57-9.52,7.2-14.1a260.33,260.33,0,0,1,16.73-26.88l4.65-6.41c1.58-2.12,3.26-4.15,4.89-6.23l2.45-3.11,1-1.22.86-1c1.15-1.37,2.3-2.73,3.49-4.06l25.24,22.15c3.16-30.26,13.07-62.06,30.23-92.68-35,.42-72.49,7.82-109.33,23.27l25.24,22.14c-1.36,1.52-2.67,3.08-4,4.64l-1,1.16-1.15,1.39-2.81,3.54c-1.86,2.37-3.77,4.7-5.58,7.12l-5.31,7.31a299.76,299.76,0,0,0-19.1,30.69c-3,5.24-5.52,10.73-8.22,16.12-1.26,2.74-2.45,5.51-3.67,8.26l-1.83,4.14-1.65,4.21c-1.09,2.81-2.21,5.61-3.27,8.44L40,320.09c-.47,1.43-1,2.84-1.42,4.29l-1.28,4.34c-.84,2.9-1.75,5.77-2.51,8.69-1.42,5.86-3,11.69-4.09,17.62l-.89,4.44c-.3,1.47-.62,2.95-.83,4.44l-1.39,8.94c-.52,3-.77,6-1.13,9l-.5,4.49c-.16,1.5-.34,3-.42,4.5-.38,6-.91,12-.93,18.05A284.41,284.41,0,0,0,25.73,445,306.56,306.56,0,0,0,174.84,680.47Z"/><path d="M439.66,70.19H417.42a4.48,4.48,0,0,1-4.52-4.52V46.51A4.48,4.48,0,0,1,417.42,42h22.42a4.48,4.48,0,0,1,4.52,4.52V65.67A4.75,4.75,0,0,1,439.66,70.19Zm-21.33-5.42h20.6V47.42h-20.6Z"/><path d="M475.63,82.85h-60a2.72,2.72,0,1,1,0-5.43h60a2.72,2.72,0,0,1,0,5.43Z"/><path d="M475.63,95h-60a2.72,2.72,0,1,1,0-5.43h60a2.72,2.72,0,0,1,0,5.43Z"/><path d="M475.63,107.25h-60a2.71,2.71,0,1,1,0-5.42h60a2.71,2.71,0,0,1,0,5.42Z"/><path d="M451.59,119.36h-36a2.71,2.71,0,1,1,0-5.42h36a2.71,2.71,0,1,1,0,5.42Z"/><path d="M513.05,50.31h-5.78V44.88A7.26,7.26,0,0,0,500,37.65h-5.78V32.23A7.25,7.25,0,0,0,487,25H404.41a7.25,7.25,0,0,0-7.23,7.23V133.46a7.25,7.25,0,0,0,7.23,7.23h5.78v5.43a7.26,7.26,0,0,0,7.23,7.23h5.79v5.42a7.25,7.25,0,0,0,7.23,7.23h82.61a7.25,7.25,0,0,0,7.23-7.23V57.54A7.25,7.25,0,0,0,513.05,50.31ZM418.33,138H487a4.48,4.48,0,0,0,4.52-4.52V45.61h7.59v99.6h-80.8Zm-13-5.42V33h80.81v99.61Zm26,18.07H500a4.46,4.46,0,0,0,4.52-4.51V58.44h7.6v99.61H431.34Z"/><path class="cls-4" d="M364,95q0,35.49.05,71c0,1.69-.34,2-2,2q-71-.09-141.94,0c-1.69,0-2-.34-2-2q.09-71,0-141.94c0-1.69.34-2,2-2q71,.09,141.94,0c1.69,0,2,.34,2,2Q363.9,59.52,364,95ZM225.86,112a1.16,1.16,0,0,0,1.32.41l.24.09a.76.76,0,0,0,.93.26,24.35,24.35,0,0,0,20.84-3.28l.72,1.14c.74,2.72,2.93,4.32,5,5.9a47,47,0,0,0,28.53,10.12c7.33.18,15-.49,21.74,2.86,14.14,7,28.58,13.67,40.25,24.75a21.15,21.15,0,0,0,5.25,3.82,8,8,0,0,0,5.17,1c4.3-.87,6.84-5.14,5.66-10.12-2.07-8.78-7-15.77-14-21.33a22.89,22.89,0,0,1-6.93-8c-2-4.17-5.83-6.89-8.59-10.47-.68-.87-1.66-.75-2.59-.81l0,0c-.34-2.8-2.59-4.27-4.4-5.89a42.44,42.44,0,0,1-10.08-13.5,2.91,2.91,0,0,1,1.1-3.68c2.41-1.08,1.05-1.84.1-2.73-.48-.44-1.5-.7-1.56-1.13-.54-4.27-2.55-2.27-4.32-.94a53,53,0,0,0-9.82-13.28c-3.29-3.09-3.3-3.08-.36-6.34,5.49-6.08,6-10.72,1.89-17.36A21.26,21.26,0,0,0,300,41c-3-3.62-3.8-3.58-6.69.14a147.37,147.37,0,0,1-12.72,14.06,5.93,5.93,0,0,1-5.28,2c-1.75-.22-3.82-.71-5.1,1.32a1.06,1.06,0,0,1-.5,0c-.41-.5-.72-1.17-1.24-1.48-5-2.89-7.34-7.59-9.05-12.83a25.62,25.62,0,0,0-3.69-7.6c-1-1.37-2.15-2.69-4-3-3-.43-9.13,3.27-10.2,6.19-.4,1.1-.63,2.26,1,2.73a.67.67,0,0,1,.14.49,2.08,2.08,0,0,0,.18,2.37A20.92,20.92,0,0,0,247.51,51c3.36,3,7.06,5.7,9.72,9.44,1.08,1.53,1.81,3.18.55,4.95a4,4,0,0,1-5.19,1.47A8.88,8.88,0,0,1,248,63.24c-1.67-2.74-3.83-5.13-5.53-7.83-2.26-3.58-5.7-5.93-8.91-8.36-3.49-2.65-10.55,1.72-11,6.55a11.19,11.19,0,0,0,10.62,12.16,1.37,1.37,0,0,0,1.34.61c.59.45,1.19.9,1.78,1.37,4.06,3.22,8.28,6.27,10,11.55a2.56,2.56,0,0,1-.61,3C241.86,86,238.1,89.81,234,93.2c-4.51,3.72-9.07,7.37-13.35,11.35-1.18,1.1-2.06,2.34-.28,3.72a1,1,0,0,0,.86.85v0a4.43,4.43,0,0,0,3.06,2.06l0,0c.24.79.89.78,1.53.79Z"/><path class="cls-5" d="M249.91,110.65l-.72-1.14c6.52-4.8,8.64-11.66,9-19.3.07-1.53.32-3.27-1.38-4.31-.44-2.09-.73-4.23-1.36-6.26-.49-1.54-1.4-3-3.49-2.24-2.72,1.95-3.79.77-5.11-2A19.27,19.27,0,0,0,237.48,66c-1-.46-2.09-1.16-2.89.34a1.37,1.37,0,0,1-1.34-.61c0-.19.1-.41,0-.56-1.22-2.93-.36-6.24,2-7.49,2.87-1.54,5.08-.88,7.38,2.19,2.54,3.4,4.91,7,8.77,9.1,3.14,1.73,5.23,1.49,7.68-.85s2.71-4,1.19-7.36a14.45,14.45,0,0,0-3.5-4.75c-2.22-2-4.48-4.07-6.85-5.94-1.29-1-1.3-2-.42-3.07a5.74,5.74,0,0,1,5.17-2.34c2.19.13,2.74,1.59,3.21,3.29,1.39,5,4.23,8.79,9.07,10.92,1,.45,2.1,1.26,2.79-.42a1.06,1.06,0,0,0,.5,0c.68,1.62,2.13,1.28,3.41,1.28,12-.07,21.79,4.46,29,14.19a80.76,80.76,0,0,1,8.26,14.13c3.7,7.93,9.33,14.09,16.05,19.43.68.54,1.27,1.54,2.4.8l0,0c-.53,1.31.54,2,1.1,2.91-.36,4.29-1,4.73-5.05,5.79-7.42,2-14.9,3.67-22.38,5.39-1.52.35-3.17.7-3.8,2.5-4.88-.28-9.76-.63-14.64-.82-12.28-.48-23.32-3.92-32-13.13C251.74,110,250.9,109.75,249.91,110.65Zm24-6.5c-.79-.11-1.68-.17-1.89.75-.32,1.37.88,2,1.8,2.11a4.19,4.19,0,0,1,3.68,2.95c.43,1.19.71,3.43,2.44,2.67s.3-2.56-.26-3.72-.37-1.77.92-2.14a1.93,1.93,0,0,1,2.58.9c.85,1.33,1.57,4.11,3.19,3.18s-.46-2.81-1.13-4.2c-.31-.63-.74-1.19.16-1.57.61-.25,1.1-1.23,2-.43a5.12,5.12,0,0,0,1.07.92c1.42.66,2.72,3.52,4,2,1.46-1.73-1.38-2.67-2.51-3.85-.52-.53-1.67-.68-1-1.9.34-.67.57-1.53-.32-2-.7-.34-1.21.33-1.73.7A18.06,18.06,0,0,1,274,104.15Z"/><path class="cls-6" d="M224.28,111.21a4.43,4.43,0,0,1-3.06-2.06c.62-.48,2.16-.48,1.76-1.43-.86-2,.69-2.52,1.66-3.31C233.58,97,242,89.06,250.33,81c3.52-1.27,3.5-1.27,4,2.95.31,2.46.2,5,1.25,7.34-1,15.17-14.47,23.64-28.48,17.87C224.77,108.22,224,108.78,224.28,111.21Z"/><path class="cls-7" d="M330.44,111.19c-.56-.89-1.63-1.6-1.1-2.91.93.06,1.91-.06,2.59.81,2.76,3.58,6.6,6.3,8.59,10.47a22.89,22.89,0,0,0,6.93,8c7,5.56,11.94,12.55,14,21.33,1.18,5-1.36,9.25-5.66,10.12a8,8,0,0,1-5.17-1,21.15,21.15,0,0,1-5.25-3.82c-11.67-11.08-26.11-17.72-40.25-24.75-6.74-3.35-14.41-2.68-21.74-2.86a47,47,0,0,1-28.53-10.12c-2-1.58-4.21-3.18-5-5.9,1-.9,1.83-.61,2.66.27,8.68,9.21,19.72,12.65,32,13.13,4.88.19,9.76.54,14.64.82a8.2,8.2,0,0,0,3.45,1,39.07,39.07,0,0,1,8.35,3.51c12.64,7.66,26.59,13.29,37.25,24a6.82,6.82,0,0,0,1.11.88c2.29,1.49,4.59,3.45,7.48,1.61s2.16-4.93,1.79-7.73a6,6,0,0,0-.38-1.36A38.43,38.43,0,0,0,346,129.46c-2.54-2-5.16-3.89-6.58-6.91a30.58,30.58,0,0,0-6.74-9A6.44,6.44,0,0,0,330.44,111.19Z"/><path class="cls-8" d="M269.74,58.48c-.69,1.68-1.78.87-2.79.42-4.84-2.13-7.68-5.93-9.07-10.92-.47-1.7-1-3.16-3.21-3.29A5.74,5.74,0,0,0,249.5,47c-.88,1.11-.87,2.06.42,3.07C252.29,52,254.55,54,256.77,56a14.45,14.45,0,0,1,3.5,4.75c1.52,3.37,1.28,5-1.19,7.36s-4.54,2.58-7.68.85c-3.86-2.12-6.23-5.7-8.77-9.1-2.3-3.07-4.51-3.73-7.38-2.19-2.33,1.25-3.19,4.56-2,7.49.07.15,0,.37,0,.56A11.19,11.19,0,0,1,222.63,53.6c.4-4.83,7.46-9.2,11-6.55,3.21,2.43,6.65,4.78,8.91,8.36,1.7,2.7,3.86,5.09,5.53,7.83a8.88,8.88,0,0,0,4.57,3.64,4,4,0,0,0,5.19-1.47c1.26-1.77.53-3.42-.55-4.95-2.66-3.74-6.36-6.43-9.72-9.44a20.92,20.92,0,0,1-4.67-5.63,2.08,2.08,0,0,1-.18-2.37c1.23-.18,1.82.55,2.37,1.52.88,1.58,1.87,2.14,3.24.31a6,6,0,0,1,5.62-2.46c1.9-1.69.25-3-.57-4.28-.61-1-1.12-2.64-2.88-1.35a7.42,7.42,0,0,0-3.09,1.11c-2.22,1-3.11,3.23-4.83,4.66-1.58-.47-1.35-1.63-1-2.73,1.07-2.92,7.21-6.62,10.2-6.19,1.84.27,2.95,1.59,4,3a25.62,25.62,0,0,1,3.69,7.6c1.71,5.24,4,9.94,9.05,12.83C269,57.31,269.33,58,269.74,58.48Zm-34.13-5.76v0c-.26-1.52-.73-2.79-2.44-3.39-3.08-1.09-6.33.85-7.9,4.88a5.36,5.36,0,0,0,3.45,7.25c.78.26,1.47.19,1.54-.59.23-3,2.63-4.42,4.3-6.39l1-.2c.56.72,1.22.61,1.46-.14C237.37,53.05,236.5,52.79,235.61,52.72Z"/><path class="cls-9" d="M329.37,108.31c-1.13.74-1.72-.26-2.4-.8-6.72-5.34-12.35-11.5-16.05-19.43A80.76,80.76,0,0,0,302.66,74c-7.22-9.73-17-14.26-29-14.19-1.28,0-2.73.34-3.41-1.28,1.28-2,3.35-1.54,5.1-1.32a5.93,5.93,0,0,0,5.28-2,147.37,147.37,0,0,0,12.72-14.06c2.89-3.72,3.66-3.76,6.69-.14a21.26,21.26,0,0,1,1.89,2.47c4.12,6.64,3.6,11.28-1.89,17.36-2.94,3.26-2.93,3.25.36,6.34a53,53,0,0,1,9.82,13.28c1.77-1.33,3.78-3.33,4.32.94.06.43,1.08.69,1.56,1.13,1,.89,2.31,1.65-.1,2.73a2.91,2.91,0,0,0-1.1,3.68A42.44,42.44,0,0,0,325,102.42C326.78,104,329,105.51,329.37,108.31ZM297,40.73c-4.43,6.31-9.5,11.49-14.74,16.94,4.45.43,8,2.29,11.36,4.3,1,.59,1.47.52,2.3-.33,7.42-7.59,7.73-10.47,2-19.47Z"/><path class="cls-10" d="M250.33,81c-8.36,8-16.75,16-25.69,23.37-1,.79-2.52,1.31-1.66,3.31.4,1-1.14,1-1.76,1.43v0c.23-.8-.4-.74-.86-.85-1.78-1.38-.9-2.62.28-3.72,4.28-4,8.84-7.63,13.35-11.35,4.12-3.39,7.88-7.22,11.79-10.87a2.56,2.56,0,0,0,.61-3c-1.73-5.28-5.95-8.33-10-11.55-.59-.47-1.19-.92-1.78-1.37.8-1.5,1.89-.8,2.89-.34a19.27,19.27,0,0,1,9.36,9.42c1.32,2.72,2.39,3.9,5.11,2C252.53,79.11,250.52,79.67,250.33,81Z"/><path class="cls-11" d="M224.28,111.21c-.29-2.43.49-3,2.85-2,14,5.77,27.45-2.7,28.48-17.87,1.23-1.63-.57-3.92,1.19-5.43,1.7,1,1.45,2.78,1.38,4.31-.35,7.64-2.47,14.5-9,19.3a24.35,24.35,0,0,1-20.84,3.28.7.7,0,0,0-.93-.26l-.24-.09a.8.8,0,0,0-1.32-.41l-.07,0c-.11-1-.8-1-1.53-.79Z"/><path class="cls-12" d="M253.89,42.39a6,6,0,0,0-5.62,2.46c-1.37,1.83-2.36,1.27-3.24-.31-.55-1-1.14-1.7-2.37-1.52a.67.67,0,0,0-.14-.49c1.72-1.43,2.61-3.69,4.83-4.66a7.42,7.42,0,0,1,3.09-1.11C251.26,38.84,251.87,41.05,253.89,42.39Z"/><path class="cls-6" d="M224.26,111.19c.73-.16,1.42-.24,1.53.79C225.15,112,224.5,112,224.26,111.19Z"/><path class="cls-6" d="M220.35,108.27c.46.11,1.09,0,.86.85A1,1,0,0,1,220.35,108.27Z"/><path class="cls-6" d="M225.86,112a.8.8,0,0,1,1.32.41A1.16,1.16,0,0,1,225.86,112Z"/><path class="cls-6" d="M227.42,112.53a.7.7,0,0,1,.93.26A.76.76,0,0,1,227.42,112.53Z"/><path class="cls-13" d="M274,104.15a18.06,18.06,0,0,0,12.95-3.64c.52-.37,1-1,1.73-.7.89.44.66,1.3.32,2-.63,1.22.52,1.37,1,1.9,1.13,1.18,4,2.12,2.51,3.85-1.31,1.56-2.61-1.3-4-2a5.12,5.12,0,0,1-1.07-.92c-.86-.8-1.35.18-2,.43-.9.38-.47.94-.16,1.57.67,1.39,2.89,3.2,1.13,4.2s-2.34-1.85-3.19-3.18a1.93,1.93,0,0,0-2.58-.9c-1.29.37-1.55.85-.92,2.14s1.9,3,.26,3.72-2-1.48-2.44-2.67a4.19,4.19,0,0,0-3.68-2.95c-.92-.15-2.12-.74-1.8-2.11C272.27,104,273.16,104,274,104.15Z"/><path class="cls-14" d="M330.44,111.19a6.44,6.44,0,0,1,2.2,2.32c-1.28,3.71-3.9,5.54-7.82,5.67a7.58,7.58,0,0,0-2.44.63,76.57,76.57,0,0,1-13,3.43c-2.28.47-5.09.25-6.72,2.64a8.2,8.2,0,0,1-3.45-1c.63-1.8,2.28-2.15,3.8-2.5,7.48-1.72,15-3.43,22.38-5.39C329.41,115.92,330.08,115.48,330.44,111.19Z"/><path class="cls-14" d="M256.8,85.9c-1.76,1.51,0,3.8-1.19,5.43-1.05-2.34-.94-4.88-1.25-7.34-.53-4.22-.51-4.22-4-2.95.19-1.37,2.2-1.93,1.62-3.64,2.09-.71,3,.7,3.49,2.24C256.07,81.67,256.36,83.81,256.8,85.9Z"/><path class="cls-15" d="M302.66,125.88c1.63-2.39,4.44-2.17,6.72-2.64a76.57,76.57,0,0,0,13-3.43,7.58,7.58,0,0,1,2.44-.63c3.92-.13,6.54-2,7.82-5.67a30.58,30.58,0,0,1,6.74,9c1.42,3,4,4.93,6.58,6.91a38.43,38.43,0,0,1,12.3,17.35,6,6,0,0,1,.38,1.36c.37,2.8,1.22,5.82-1.79,7.73s-5.19-.12-7.48-1.61a6.82,6.82,0,0,1-1.11-.88c-10.66-10.73-24.61-16.36-37.25-24A39.07,39.07,0,0,0,302.66,125.88ZM350,146.78c-.49.07-1.48.08-1.39,1.48.09,1.59,3.75,5,5.41,5,1.36,0,1.39-1.05,1.43-2C355.58,149,353.13,146.84,350,146.78Z"/><path class="cls-16" d="M234.57,54.5c-1.67,2-4.07,3.41-4.3,6.39-.07.78-.76.85-1.54.59a5.36,5.36,0,0,1-3.45-7.25c1.57-4,4.82-6,7.9-4.88,1.71.6,2.18,1.87,2.44,3.39-.72-.73-1.4-1.5-2.17-2.17-.53-.46-1.15-1.16-1.94-.43s0,1.4.4,1.88C232.72,52.92,233.68,53.68,234.57,54.5Z"/><path class="cls-17" d="M253.89,42.39c-2-1.34-2.63-3.55-3.45-5.63,1.76-1.29,2.27.4,2.88,1.35C254.14,39.39,255.79,40.7,253.89,42.39Z"/><path class="cls-18" d="M234.57,54.5c-.89-.82-1.85-1.58-2.66-2.48-.43-.48-1.25-1.09-.4-1.88s1.41,0,1.94.43c.77.67,1.45,1.44,2.17,2.17v0c0,.53,0,1.06,0,1.58Z"/><path class="cls-16" d="M235.57,54.3c0-.52,0-1,0-1.58.89.07,1.76.33,1.42,1.44C236.79,54.91,236.13,55,235.57,54.3Z"/><path class="cls-19" d="M297,40.73l.89,1.44c5.76,9,5.45,11.88-2,19.47-.83.85-1.29.92-2.3.33-3.41-2-6.91-3.87-11.36-4.3C287.45,52.22,292.52,47,297,40.73Z"/><path class="cls-13" d="M350,146.78c3.1.06,5.55,2.21,5.45,4.43,0,.95-.07,2-1.43,2-1.66,0-5.32-3.36-5.41-5C348.55,146.86,349.54,146.85,350,146.78Z"/></g></svg>