<svg id="Layer_1" data-name="Layer 1" xmlns="http://www.w3.org/2000/svg" xmlns:xlink="http://www.w3.org/1999/xlink" viewBox="0 0 143.41 239.52"><defs><style>.cls-1,.cls-9{fill:none;}.cls-2{fill:#fdc848;}.cls-3{fill:#040604;}.cls-4{fill:#eb5f0a;}.cls-5{fill:#0b070a;}.cls-6{fill:#8a1812;}.cls-7{clip-path:url(#clip-path);}.cls-8{fill:#b1144d;}.cls-9{stroke:#000;stroke-miterlimit:10;stroke-width:4px;}</style><clipPath id="clip-path" transform="translate(-53.51 -21.02)"><path class="cls-1" d="M182.77,146c1.41,4.2-18.22,19.33-40.89,19.8-23.08.49-43.61-14.33-42.32-18.65,1-3.2,13.45.64,44.11,0C171.06,146.56,181.79,143.06,182.77,146Z"/></clipPath></defs><title>clinicalbert</title><path class="cls-2" d="M179,160.49c-1.2,2.16-14.75,25.67-37.16,26.08C118,187,103.23,161,102.58,159.79c-21.93-40,13.06-108.89,39.26-108.64S201.21,120.62,179,160.49Z" transform="translate(-53.51 -21.02)"/><path class="cls-3" d="M152.56,48.88c1.67-4.79,3.68-11.45,4-16.87l-6.05,14.7C152.2,38.17,154,29.33,155.85,26c-3.59,2.38-6,10.18-7.59,17.09.26-8.94.34-20-.79-22.09-.93,2.71-1.88,13.67-2.51,22.42.1-5.22.1-11.08-.18-15-.56,1.67-1.51,9.1-2.27,15.68-.1-6.51-.39-14-1.16-16.71-1.1,2.1-1.77,10.58-1.73,17.78-.57-5-1.48-10.34-2.88-12.41.09,4.83.48,10.43.55,15.1-1.07-6.72-2.53-16.73-2.92-23.36-1.39,6.22-1.27,13.22-.7,19.27C132,37.2,129.31,29.65,125.25,27c2,3.47,4.42,12.4,6.41,21.05l-6.73-16c.15,6.6,2.94,15,4.65,19.69l-5.91-12C125.37,50.68,128,55,128,55H153s2.44-4.32,4.14-15.33Z" transform="translate(-53.51 -21.02)"/><ellipse class="cls-3" cx="86.98" cy="33.44" rx="12.57" ry="4.16"/><path class="cls-4" d="M153.79,123.1c-1.36,7.57-8.37,15.45-15.72,14.47-7.78-1-12.32-11.52-11.15-19.68,1.09-7.57,7.45-15.71,14.53-15.29C149.36,103.05,155.42,114,153.79,123.1Z" transform="translate(-53.51 -21.02)"/><path class="cls-5" d="M165.66,90.46a55.24,55.24,0,0,0-48.35,0,3.06,3.06,0,0,1-2.11-.88,3,3,0,0,1-.88-2.11h0a3,3,0,0,1,.88-2.11,3.39,3.39,0,0,1,2.11-.88c4.14-.41,10.92-5.15,24.08-5.17s20.65,4.8,24.28,5.17a3.48,3.48,0,0,1,2.11.88,3,3,0,0,1,.88,2.11h0A3,3,0,0,1,165.66,90.46Z" transform="translate(-53.51 -21.02)"/><path class="cls-6" d="M182.77,146c1.41,4.2-18.22,19.33-40.89,19.8-23.08.49-43.61-14.33-42.32-18.65,1-3.2,13.45.64,44.11,0C171.06,146.56,181.79,143.06,182.77,146Z" transform="translate(-53.51 -21.02)"/><g class="cls-7"><path class="cls-8" d="M149.81,154.77a9.94,9.94,0,1,1-10-10.18A10.08,10.08,0,0,1,149.81,154.77Z" transform="translate(-53.51 -21.02)"/></g><ellipse class="cls-2" cx="97.45" cy="111.96" rx="12.24" ry="8.35" transform="translate(-75.41 179.18) rotate(-85.44)"/><ellipse class="cls-2" cx="182.66" cy="111.36" rx="8.35" ry="12.24" transform="translate(-60.43 -8.79) rotate(-3.76)"/><path class="cls-9" d="M185.24,110.14c16.22,0,8.11,35.36,3.77,52.36-5.07,19.89-29.8,31.77-49,30.63h0c-21.35,0-36.2-4.13-44.3-24.46,0,0-21.14-57.41.21-57.41" transform="translate(-53.51 -21.02)"/><path class="cls-9" d="M141.64,193.25v27.41a38,38,0,0,1-37.88,37.88h0a38,38,0,0,1-37.88-37.88V193.25" transform="translate(-53.51 -21.02)"/><circle class="cls-9" cx="12.75" cy="162.73" r="10.75"/></svg>