<svg xmlns="http://www.w3.org/2000/svg" viewBox="0 0 800 800"><g id="Layer_2" data-name="Layer 2"><path d="M167.79,605.49a8.93,8.93,0,0,0,8.93,8.93h44.65v44.66a8.93,8.93,0,0,0,8.94,8.93h142.9a8.93,8.93,0,0,0,8.93-8.93,158.68,158.68,0,0,1,26.66-88,96.38,96.38,0,0,0,18-56.27V497.41a151,151,0,0,0-13.21-61.62h31.07v53.58a8.94,8.94,0,0,0,8.94,8.94H482a26.8,26.8,0,1,0,0-17.87h-19.5V435.79h17.86a8.93,8.93,0,0,0,8.93-8.94V400.06h17.87V382.2H489.32V328.61h35.73V310.74H489.32V266.09a8.93,8.93,0,0,0-8.93-8.94H462.53V221.43h35.72V203.56H453.6a8.94,8.94,0,0,0-8.94,8.94v44.65H408.94V184.06a26.8,26.8,0,1,0-17.87,0v73.09H355.35v-19.5a26.81,26.81,0,1,0-17.86,0v19.5H319.62a8.93,8.93,0,0,0-8.93,8.94v44.65H239.24V237.65a26.8,26.8,0,1,0-17.87,0v82a8.94,8.94,0,0,0,8.94,8.94h80.38v21.95a149.12,149.12,0,0,0-34.83-4.09H176.72a8.93,8.93,0,0,0-8.93,8.93v78l-34.55,60.43a8.92,8.92,0,0,0,2.39,11.61l32.16,24.12Zm339.4-125a8.94,8.94,0,1,1-8.94,8.93A8.93,8.93,0,0,1,507.19,480.44Zm-276.88-259a8.94,8.94,0,1,1,8.93-8.93A8.93,8.93,0,0,1,230.31,221.43ZM400,150a8.94,8.94,0,1,1-8.94,8.94A8.93,8.93,0,0,1,400,150Zm-53.59,53.59a8.94,8.94,0,1,1-8.93,8.94A8.93,8.93,0,0,1,346.42,203.56ZM328.55,275H471.46v142.9H328.55ZM152.66,495.89l31.81-55.64a9,9,0,0,0,1.18-4.46V364.33h90.21a130.57,130.57,0,0,1,34.83,4.76v57.76a8.93,8.93,0,0,0,8.93,8.94h17.87v17.86H292.83a8.93,8.93,0,0,0-8.93,8.93v17.86h17.86v-8.93h44.66a8.93,8.93,0,0,0,8.93-8.93V435.79h38.4a132.82,132.82,0,0,1,15.19,61.62v17.42a78.58,78.58,0,0,1-14.69,45.89,173.79,173.79,0,0,0-29.74,89.42H239.24V610.67l58.05-33.16a8.92,8.92,0,0,0,4.47-7.75V534H283.9v30.55l-56,32H185.65V525.1a8.94,8.94,0,0,0-3.57-7.14Z"/><circle cx="221.37" cy="417.92" r="17.86"/><path d="M426.8,310.74H373.21a8.93,8.93,0,0,0-8.93,8.93v53.59a8.93,8.93,0,0,0,8.93,8.94H426.8a8.93,8.93,0,0,0,8.93-8.94V319.67A8.93,8.93,0,0,0,426.8,310.74Zm-8.93,53.59H382.14V328.61h35.73Z"/><path d="M569.71,185.7a26.8,26.8,0,0,0-25.15,17.86H516.12v17.87h28.44a26.75,26.75,0,1,0,25.15-35.73Zm0,35.73a8.94,8.94,0,1,1,8.93-8.93A8.93,8.93,0,0,1,569.71,221.43Z"/><path d="M641.16,292.88A26.8,26.8,0,1,0,668,319.67,26.8,26.8,0,0,0,641.16,292.88Zm0,35.73a8.94,8.94,0,1,1,8.93-8.94A8.93,8.93,0,0,1,641.16,328.61Z"/><path d="M587.57,364.33a26.8,26.8,0,1,0,26.79,26.8A26.8,26.8,0,0,0,587.57,364.33Zm0,35.73a8.93,8.93,0,1,1,8.93-8.93A8.93,8.93,0,0,1,587.57,400.06Z"/><rect x="551.84" y="480.44" width="17.86" height="17.86"/><rect x="525.05" y="382.2" width="17.86" height="17.86"/><rect x="587.57" y="480.44" width="17.86" height="17.86"/><rect x="623.3" y="480.44" width="44.66" height="17.86"/><rect x="542.91" y="310.74" width="17.86" height="17.86"/><rect x="578.64" y="310.74" width="17.86" height="17.86"/><rect x="283.9" y="498.31" width="17.86" height="17.86"/></g></svg>