<?xml version="1.0" encoding="utf-8"?>
<!-- Generator: Adobe Illustrator 21.1.0, SVG Export Plug-In . SVG Version: 6.00 Build 0)  -->
<svg version="1.1" xmlns="http://www.w3.org/2000/svg" xmlns:xlink="http://www.w3.org/1999/xlink" x="0px" y="0px"
	 viewBox="0 0 288 288" enable-background="new 0 0 288 288" xml:space="preserve">
<g id="idea1">
	<g>
		<path fill="#020203" d="M286.6,41.6l-12.9-13.2l-6.5-6.6l0,0l-6.5-6.6c-1.8-1.8-4.6-1.7-6.3,0.1c-1.7,1.8-1.7,4.6,0,6.3l3.3,3.4
			l-16.3,16.6l-6.5-6.6c-1.7-1.8-4.6-1.8-6.3,0l-48.5,49.3c-9.4,9.6-10.6,24.7-2.8,35.8L164,133.7c-1.8,1.7-1.8,4.6-0.1,6.4
			s4.6,1.9,6.3,0.1c0,0,0.1-0.1,0.1-0.1l13.3-13.5c10.9,7.9,25.8,6.7,35.2-2.9l3.2-3.3l0,0l0,0l9.7-9.9l0,0l0,0l9.7-9.9l0,0
			l12.1-12.3l0,0v0l13.7-14c1.7-1.8,1.7-4.7,0-6.4l-6.5-6.6L277,44.7l3.3,3.4c1.7,1.8,4.6,1.8,6.3,0.1
			C288.4,46.4,288.5,43.5,286.6,41.6C286.7,41.6,286.7,41.6,286.6,41.6L286.6,41.6z M199.4,122.7c-10.2,0-18.4-8.4-18.4-18.7
			c0-5,1.9-9.7,5.4-13.2L218,58.6l26,26.4l-5.8,5.9l-3.3-3.4c-1.7-1.8-4.6-1.8-6.3-0.1c-1.8,1.8-1.8,4.6-0.1,6.4
			c0,0,0.1,0.1,0.1,0.1l3.3,3.4l-3.4,3.4l-3.3-3.4c-1.7-1.8-4.6-1.8-6.3,0c-1.7,1.8-1.7,4.7,0,6.4l3.3,3.4l-3.4,3.4l-3.3-3.4
			c-1.7-1.8-4.6-1.8-6.3-0.1s-1.8,4.6-0.1,6.4c0,0,0.1,0.1,0.1,0.1l3.3,3.4l-0.1,0.1C209,120.7,204.3,122.7,199.4,122.7z
			 M250.4,78.6l-26-26.4l7.4-7.5l26,26.4L250.4,78.6z M270.7,38.2l-16.3,16.6l-6.6-6.7l16.3-16.6l3.3,3.4L270.7,38.2z"/>
	</g>
	<g>
		<path fill="#020203" d="M18.6,139c0.9-2.2,1.9-4.4,3-6.7c11.1-22.7,36.7-38.6,66.2-38.6c31.2,0,57.8,17.8,67.9,42.5
			c0.4,0.9,0.7,1.8,1,2.8h-29.9l0,0.2c-2-0.1-3.9,1-4.7,3.6l-4.5,14.5l-4.5-18.4l-2.8-11.5c-1.6-6.4-8.5-6.2-9.7,0.3l-2.1,10.9
			l-4.9,25.7l-6.7-28.3l-5.6-23.8c-1.5-6.4-8.5-6.2-9.7,0.2l-4.3,22.9l-2.6,13.6l-4.1,21.8l-4.1-17.3L54,143.2
			c-0.3-2.2-2-4.2-4.9-4.2h-8.9C40.2,139,18.6,139,18.6,139z M159.6,149.1c0.2,1,0.4,2.2,0.5,3.5c3.7,22.6-3.4,42.2-16.9,61.2
			c-8.9,14.7-8.5,41-4.2,57.5l0.1,0.2H99.3H65.5l-1.5-7.2c-1.4-7.5-5.4-10.7-14.5-10.7l-20.6,0c-6-0.2-10.7-5.2-10.7-11.3l0-0.7
			c0.1-10,0.1-28.1,0.2-35.6L7.8,206h-1c-3.3-0.3-5.9-3.1-5.9-6.5c0-1.1,0.2-2.2,0.7-3.1c2.6-4.8,8-14.6,11.8-20.9
			c4.3-7.3,4.2-8.3,2.5-13.9c-1-3.4-1.1-7.7-0.2-12.4h24.5h5l1.6,6.6l9.5,40c1.5,6.4,8.5,6.2,9.7-0.2l8.4-44.7l2.6-13.6l0.2,1.1
			l9.6,40.4l2.5,10.5c1.5,6.4,8.5,6.2,9.7-0.2l2-10.5l5.1-26.6l6.2,25.2c1.5,6.1,7.7,6.3,9.6,0.3l8.8-28.2
			C130.5,149.1,159.6,149.1,159.6,149.1z"/>
	</g>
</g>
<g id="Layer_2" display="none">
	<g display="inline">
		<path fill="#020203" d="M264.6,63.7H263v-5.2c0-43-87-49.4-129.3-49.4S25.4,15.4,25.4,58.4v5.2h-1.6C10.8,63.7,0,74.2,0,87.4v35.9
			c0,13.2,10.8,23.9,23.8,23.9H48c3.8,0,7-3,7-6.8v-70c0-3.8-3.2-6.7-7-6.7h-8.9v-5.2c0-35.5,59.8-35.7,94.7-35.7
			S249.4,23,249.4,58.4v5.2h-8.9c-3.8,0-7,2.9-7,6.7v70c0,3.8,3.2,6.8,7,6.8h24.1c13,0,23.4-10.7,23.4-23.9V87.4
			C288,74.2,277.6,63.7,264.6,63.7z M41.3,133.4H23.8c-5.5,0-10.2-4.5-10.2-10.2V87.4c0-5.7,4.7-10,10.2-10h17.5V133.4z
			 M274.4,123.3c0,5.7-4.3,10.2-9.8,10.2h-17.5V77.3h17.5c5.5,0,9.8,4.4,9.8,10V123.3z"/>
	</g>
	<g display="inline">
		<path fill="#020203" d="M63.4,62.4c1.2-1,3.5-2.7,6.6-4.8c5.1-3.5,10.9-7,17.3-10.2c18.2-9.3,37.4-14.9,56.7-14.9
			s38.5,5.6,56.7,14.9c6.4,3.2,12.1,6.7,17.3,10.2c3.1,2.1,5.3,3.8,6.6,4.8c1.7,1.3,2.6,3.4,2.6,5.7v117.3
			c0,49.1-37.2,88.9-83.2,88.9c-45.9,0-83.2-39.8-83.2-88.9V68.1C60.8,65.9,61.8,63.8,63.4,62.4z M74.1,71.8v113.7
			c0,41.2,31.3,74.7,69.9,74.7c38.6,0,69.9-33.4,69.9-74.7V71.8c-0.9-0.7-1.9-1.4-3-2.1c-4.7-3.2-10-6.4-15.9-9.4
			c-16.6-8.5-33.9-13.5-51-13.5s-34.4,5.1-51,13.5c-5.8,3-11.2,6.2-15.9,9.4C76,70.4,75,71.1,74.1,71.8z M112.4,209.1
			c-3.7,0-6.7-3.2-6.7-7.1c0-3.9,3-7.1,6.7-7.1c7.3,0,21.8,14.8,29.1,14.8c8.5,0,25.6-14.8,34.1-14.8c3.7,0,6.7,3.2,6.7,7.1
			c0,3.9-3,7.1-6.7,7.1c-7.9,0-23.7,14.8-31.6,14.8S120.3,209.1,112.4,209.1z"/>
		<path fill="#020203" d="M63.4,62.4c1.2-1,3.5-2.7,6.6-4.8c5.1-3.5,10.9-7,17.3-10.2c18.2-9.3,37.4-14.9,56.7-14.9
			s38.5,5.6,56.7,14.9c6.4,3.2,12.1,6.7,17.3,10.2c3.1,2.1,5.3,3.8,6.6,4.8c1.7,1.3,2.6,3.4,2.6,5.7v117.3
			c0,49.1-37.2,88.9-83.2,88.9c-45.9,0-83.2-39.8-83.2-88.9V68.1C60.8,65.9,61.8,63.8,63.4,62.4z M74.1,71.8v113.7
			c0,41.2,31.3,74.7,69.9,74.7c38.6,0,69.9-33.4,69.9-74.7V71.8c-0.9-0.7-1.9-1.4-3-2.1c-4.7-3.2-10-6.4-15.9-9.4
			c-16.6-8.5-33.9-13.5-51-13.5s-34.4,5.1-51,13.5c-5.8,3-11.2,6.2-15.9,9.4C76,70.4,75,71.1,74.1,71.8z M112.4,209.1
			c-3.7,0-6.7-3.2-6.7-7.1c0-3.9,3-7.1,6.7-7.1c7.3,0,21.8,14.8,29.1,14.8c8.5,0,25.6-14.8,34.1-14.8c3.7,0,6.7,3.2,6.7,7.1
			c0,3.9-3,7.1-6.7,7.1c-7.9,0-23.7,14.8-31.6,14.8S120.3,209.1,112.4,209.1z"/>
	</g>
	<path display="inline" fill="#020203" d="M196,100.8c-4.4,0-8,3.2-9.4,7.7l-18.7-31.2c-0.2-6-4.6-10.9-9.9-10.9
		c-5.1,0-9.2,4.4-9.8,9.9h-8.5c-0.6-5.6-4.8-9.9-9.8-9.9c-5.3,0-9.6,4.8-9.9,10.9l-18.7,31.2c-1.3-4.5-5-7.7-9.4-7.7
		c-5.5,0-9.9,5.1-9.9,11.4c0,6.3,4.5,11.4,9.9,11.4c4.4,0,8-3.2,9.4-7.7l18.7,31.2c0.2,6,4.6,10.9,9.9,10.9c5.1,0,9.2-4.4,9.8-9.9
		h8.5c0.6,5.6,4.8,9.9,9.8,9.9c5.3,0,9.6-4.8,9.9-10.9l18.7-31.2c1.3,4.5,5,7.7,9.4,7.7c5.5,0,9.9-5.1,9.9-11.4
		C205.9,105.9,201.5,100.8,196,100.8z M144,133.6l3.6,11.5h-7.2L144,133.6z M143.9,90.9l-3.5-11.7h7.2L143.9,90.9z M140.4,110.7
		l3.5-11.2l3.4,11.2H140.4z M147.6,113.6l-3.6,11.5l-3.6-11.5H147.6z M167.9,110.7c-0.6-5.6-4.8-9.9-9.8-9.9c-4.1,0-7.5,2.8-9.1,6.8
		l-3.7-12.3l3.9-12.5c1.6,3.8,5,6.4,8.9,6.4c4.4,0,8-3.2,9.4-7.7l17.5,29.3H167.9z M130,89.2c3.9,0,7.3-2.6,8.9-6.4l3.8,12.4
		l-3.7,12c-1.6-3.8-5-6.4-8.9-6.4c-5.1,0-9.2,4.4-9.8,9.9h-17.1l17.5-29.3C121.9,85.9,125.6,89.2,130,89.2z M120.1,113.6
		c0.6,5.6,4.8,9.9,9.8,9.9c3.9,0,7.3-2.6,8.9-6.4l3.8,12.2l-3.8,12.2c-1.6-3.8-5-6.4-8.9-6.4c-4.4,0-8,3.2-9.4,7.7l-17.5-29.3H120.1
		z M158.1,135.1c-3.9,0-7.3,2.6-8.9,6.4l-3.8-12.2l3.8-12.2c1.6,3.8,5,6.4,8.9,6.4c5.1,0,9.2-4.4,9.8-9.9h17.1l-17.5,29.3
		C166.1,138.4,162.4,135.1,158.1,135.1z"/>
</g>
</svg>
