<svg xmlns="http://www.w3.org/2000/svg" viewBox="0 0 800 800"><defs><style>.cls-1,.cls-10,.cls-11,.cls-12,.cls-14,.cls-16,.cls-6,.cls-8,.cls-9{fill:none;}.cls-1,.cls-6{stroke:#000;}.cls-1,.cls-10,.cls-11,.cls-12,.cls-14,.cls-6,.cls-8,.cls-9{stroke-miterlimit:10;}.cls-1{stroke-width:3px;}.cls-2{font-size:30px;}.cls-13,.cls-2{font-family:Roboto-Regular, Roboto;}.cls-3{letter-spacing:3.77em;}.cls-4{letter-spacing:3.08em;}.cls-5{letter-spacing:2.45em;}.cls-6{stroke-width:5px;}.cls-7{font-size:54px;}.cls-15,.cls-7{font-family:Roboto-Bold, Roboto;font-weight:700;}.cls-10,.cls-12,.cls-8{stroke:#e41a1c;}.cls-8,.cls-9{stroke-width:8px;opacity:0.5;}.cls-11,.cls-14,.cls-9{stroke:#377eb8;}.cls-10,.cls-11{stroke-width:2px;}.cls-12,.cls-14{stroke-width:3.39px;}.cls-13{font-size:31.69px;}.cls-15{font-size:35.69px;}</style></defs><g id="Layer_2" data-name="Layer 2"><line class="cls-1" x1="144.5" y1="624.5" x2="144.5" y2="633.5"/><line class="cls-1" x1="152.5" y1="624.5" x2="152.5" y2="633.5"/><line class="cls-1" x1="159.5" y1="624.5" x2="159.5" y2="633.5"/><line class="cls-1" x1="206.5" y1="624.5" x2="206.5" y2="633.5"/><line class="cls-1" x1="233.5" y1="624.5" x2="233.5" y2="633.5"/><line class="cls-1" x1="252.5" y1="624.5" x2="252.5" y2="633.5"/><line class="cls-1" x1="267.5" y1="624.5" x2="267.5" y2="633.5"/><line class="cls-1" x1="279.5" y1="624.5" x2="279.5" y2="633.5"/><line class="cls-1" x1="290.5" y1="624.5" x2="290.5" y2="633.5"/><line class="cls-1" x1="299.5" y1="624.5" x2="299.5" y2="633.5"/><line class="cls-1" x1="307.5" y1="624.5" x2="307.5" y2="633.5"/><line class="cls-1" x1="314.5" y1="624.5" x2="314.5" y2="633.5"/><line class="cls-1" x1="360.5" y1="624.5" x2="360.5" y2="633.5"/><line class="cls-1" x1="388.5" y1="624.5" x2="388.5" y2="633.5"/><line class="cls-1" x1="407.5" y1="624.5" x2="407.5" y2="633.5"/><line class="cls-1" x1="422.5" y1="624.5" x2="422.5" y2="633.5"/><line class="cls-1" x1="434.5" y1="624.5" x2="434.5" y2="633.5"/><line class="cls-1" x1="445.5" y1="624.5" x2="445.5" y2="633.5"/><line class="cls-1" x1="454.5" y1="624.5" x2="454.5" y2="633.5"/><line class="cls-1" x1="462.5" y1="624.5" x2="462.5" y2="633.5"/><line class="cls-1" x1="469.5" y1="624.5" x2="469.5" y2="633.5"/><line class="cls-1" x1="515.5" y1="624.5" x2="515.5" y2="633.5"/><line class="cls-1" x1="543.5" y1="624.5" x2="543.5" y2="633.5"/><line class="cls-1" x1="562.5" y1="624.5" x2="562.5" y2="633.5"/><line class="cls-1" x1="577.5" y1="624.5" x2="577.5" y2="633.5"/><line class="cls-1" x1="589.5" y1="624.5" x2="589.5" y2="633.5"/><line class="cls-1" x1="600.5" y1="624.5" x2="600.5" y2="633.5"/><line class="cls-1" x1="609.5" y1="624.5" x2="609.5" y2="633.5"/><line class="cls-1" x1="616.5" y1="624.5" x2="616.5" y2="633.5"/><line class="cls-1" x1="624.5" y1="624.5" x2="624.5" y2="633.5"/><line class="cls-1" x1="670.5" y1="624.5" x2="670.5" y2="633.5"/><line class="cls-1" x1="697.5" y1="624.5" x2="697.5" y2="633.5"/><line class="cls-1" x1="717.5" y1="624.5" x2="717.5" y2="633.5"/><line class="cls-1" x1="732.5" y1="624.5" x2="732.5" y2="633.5"/><line class="cls-1" x1="744.5" y1="624.5" x2="744.5" y2="633.5"/><text class="cls-2" transform="translate(142.5 659.5)">1<tspan class="cls-3" x="16.86" y="0">0</tspan><tspan x="146.82" y="0">10</tspan><tspan class="cls-4" x="180.54" y="0">0</tspan><tspan x="289.68" y="0">1,00</tspan><tspan class="cls-5" x="346.17" y="0">0</tspan><tspan x="436.56" y="0">10,000</tspan></text><line class="cls-6" x1="144.5" y1="624.5" x2="744.5" y2="624.5"/><text class="cls-7" transform="translate(295.5 708.5)">Dataset size</text><line class="cls-1" x1="144.5" y1="624.5" x2="135.5" y2="624.5"/><line class="cls-1" x1="144.5" y1="608.5" x2="135.5" y2="608.5"/><line class="cls-1" x1="144.5" y1="595.5" x2="135.5" y2="595.5"/><line class="cls-1" x1="144.5" y1="582.5" x2="135.5" y2="582.5"/><line class="cls-1" x1="144.5" y1="501.5" x2="135.5" y2="501.5"/><line class="cls-1" x1="144.5" y1="454.5" x2="135.5" y2="454.5"/><line class="cls-1" x1="144.5" y1="420.5" x2="135.5" y2="420.5"/><line class="cls-1" x1="144.5" y1="394.5" x2="135.5" y2="394.5"/><line class="cls-1" x1="144.5" y1="372.5" x2="135.5" y2="372.5"/><line class="cls-1" x1="144.5" y1="354.5" x2="135.5" y2="354.5"/><line class="cls-1" x1="144.5" y1="339.5" x2="135.5" y2="339.5"/><line class="cls-1" x1="144.5" y1="325.5" x2="135.5" y2="325.5"/><line class="cls-1" x1="144.5" y1="313.5" x2="135.5" y2="313.5"/><line class="cls-1" x1="144.5" y1="231.5" x2="135.5" y2="231.5"/><line class="cls-1" x1="144.5" y1="184.5" x2="135.5" y2="184.5"/><line class="cls-1" x1="144.5" y1="150.5" x2="135.5" y2="150.5"/><line class="cls-1" x1="144.5" y1="124.5" x2="135.5" y2="124.5"/><text class="cls-2" transform="translate(91.5 591.72)">0.1</text><text class="cls-2" transform="translate(91.5 510.53)">0.2</text><text class="cls-2" transform="translate(116.5 322.02)">1</text><text class="cls-2" transform="translate(116.5 240.83)">2</text><line class="cls-6" x1="144.5" y1="624.5" x2="144.5" y2="124.5"/><polyline class="cls-8" points="159 209.22 186.27 239.6 217.88 312.16 248.78 330.9 279.49 351.99 309.68 357.28 339.75 363.65 369.85 373.78 399.98 384.9 430.29 396.92 460.39 407.75 490.58 418.26 520.71 430.09 550.87 438.48 581.01 444.49 611.16 447.39 641.3 448.26 671.45 448.94 701.59 449.36 731.74 449.77"/><polyline class="cls-9" points="159 142.5 186.27 165.72 217.88 199.6 248.78 224.49 279.49 262.03 309.68 294.3 339.75 319.38 369.85 346.16 399.98 367.76 430.29 385.1 460.39 401.55 490.58 420.85 520.71 440.08 550.87 463.27 581.01 489.9 611.16 517.24 641.3 544.23 671.45 567.02 701.59 585.22 731.74 598.23"/><path class="cls-10" d="M164.48,209.22a5.48,5.48,0,1,1-5.48-5.48,5.48,5.48,0,0,1,5.48,5.48"/><path class="cls-10" d="M191.75,239.6a5.48,5.48,0,1,1-5.48-5.48,5.47,5.47,0,0,1,5.48,5.48"/><path class="cls-10" d="M223.35,312.16a5.48,5.48,0,1,1-5.47-5.47,5.47,5.47,0,0,1,5.47,5.47"/><path class="cls-10" d="M254.25,330.9a5.48,5.48,0,1,1-5.47-5.48,5.48,5.48,0,0,1,5.47,5.48"/><path class="cls-10" d="M285,352a5.48,5.48,0,1,1-5.48-5.48A5.47,5.47,0,0,1,285,352"/><path class="cls-10" d="M315.16,357.28a5.48,5.48,0,1,1-5.48-5.48,5.48,5.48,0,0,1,5.48,5.48"/><path class="cls-10" d="M345.23,363.65a5.48,5.48,0,1,1-5.48-5.48,5.48,5.48,0,0,1,5.48,5.48"/><path class="cls-10" d="M375.33,373.78a5.48,5.48,0,1,1-5.48-5.48,5.48,5.48,0,0,1,5.48,5.48"/><path class="cls-10" d="M405.45,384.9a5.48,5.48,0,1,1-5.47-5.48,5.48,5.48,0,0,1,5.47,5.48"/><path class="cls-10" d="M435.76,396.92a5.48,5.48,0,1,1-5.47-5.48,5.47,5.47,0,0,1,5.47,5.48"/><path class="cls-10" d="M465.86,407.75a5.48,5.48,0,1,1-5.47-5.48,5.48,5.48,0,0,1,5.47,5.48"/><path class="cls-10" d="M496.05,418.26a5.48,5.48,0,1,1-5.47-5.48,5.47,5.47,0,0,1,5.47,5.48"/><path class="cls-10" d="M526.19,430.09a5.48,5.48,0,1,1-5.48-5.48,5.48,5.48,0,0,1,5.48,5.48"/><path class="cls-10" d="M556.35,438.48a5.48,5.48,0,1,1-5.48-5.47,5.48,5.48,0,0,1,5.48,5.47"/><path class="cls-10" d="M586.49,444.49A5.48,5.48,0,1,1,581,439a5.48,5.48,0,0,1,5.48,5.48"/><path class="cls-10" d="M616.64,447.39a5.48,5.48,0,1,1-5.48-5.48,5.48,5.48,0,0,1,5.48,5.48"/><path class="cls-10" d="M646.78,448.26a5.48,5.48,0,1,1-5.48-5.48,5.47,5.47,0,0,1,5.48,5.48"/><path class="cls-10" d="M676.93,448.94a5.48,5.48,0,1,1-5.48-5.48,5.49,5.49,0,0,1,5.48,5.48"/><path class="cls-10" d="M707.07,449.36a5.48,5.48,0,1,1-5.48-5.48,5.48,5.48,0,0,1,5.48,5.48"/><path class="cls-10" d="M737.22,449.77a5.48,5.48,0,1,1-5.48-5.48,5.48,5.48,0,0,1,5.48,5.48"/><rect class="cls-11" x="153.53" y="137.03" width="10.95" height="10.95"/><rect class="cls-11" x="180.79" y="160.24" width="10.95" height="10.95"/><rect class="cls-11" x="212.4" y="194.13" width="10.95" height="10.95"/><rect class="cls-11" x="243.3" y="219.02" width="10.95" height="10.95"/><rect class="cls-11" x="274.02" y="256.55" width="10.95" height="10.95"/><rect class="cls-11" x="304.2" y="288.82" width="10.95" height="10.95"/><rect class="cls-11" x="334.27" y="313.91" width="10.95" height="10.95"/><rect class="cls-11" x="364.37" y="340.69" width="10.95" height="10.95"/><rect class="cls-11" x="394.5" y="362.28" width="10.95" height="10.95"/><rect class="cls-11" x="424.81" y="379.62" width="10.95" height="10.95"/><rect class="cls-11" x="454.91" y="396.07" width="10.95" height="10.95"/><rect class="cls-11" x="485.1" y="415.37" width="10.95" height="10.95"/><rect class="cls-11" x="515.23" y="434.6" width="10.95" height="10.95"/><rect class="cls-11" x="545.39" y="457.8" width="10.95" height="10.95"/><rect class="cls-11" x="575.54" y="484.42" width="10.95" height="10.95"/><rect class="cls-11" x="605.68" y="511.76" width="10.95" height="10.95"/><rect class="cls-11" x="635.83" y="538.75" width="10.95" height="10.95"/><rect class="cls-11" x="665.97" y="561.55" width="10.95" height="10.95"/><rect class="cls-11" x="696.12" y="579.74" width="10.95" height="10.95"/><rect class="cls-11" x="726.26" y="592.76" width="10.95" height="10.95"/><path class="cls-12" d="M488.62,189.51c0,15.08-22.62,15.08-22.62,0s22.62-15.09,22.62,0"/><text class="cls-13" transform="translate(506.57 200.44)">Noisy Labels</text><rect class="cls-14" x="466" y="224.38" width="22.62" height="22.62"/><text class="cls-13" transform="translate(506.57 247.41)">Raw Pixels</text><text class="cls-15" transform="translate(456 153.12)">Representation</text><rect class="cls-16" x="86" y="116" width="666" height="658"/><path d="M77.48,315.18a2.46,2.46,0,0,0-2.22,1.42,15.42,15.42,0,0,0-1.47,4.49Q71.63,331.4,65,331.4a7.91,7.91,0,0,1-6.41-3.18,12.89,12.89,0,0,1-2.6-8.36,13.84,13.84,0,0,1,2.6-8.8,8.16,8.16,0,0,1,6.73-3.31v7.72a3.73,3.73,0,0,0-2.73,1.07,4.49,4.49,0,0,0-1.09,3.34,4.61,4.61,0,0,0,.88,3A2.8,2.8,0,0,0,64.66,324a2.41,2.41,0,0,0,2.08-1.2,13,13,0,0,0,1.36-4.12,33.56,33.56,0,0,1,1.28-4.86q2.25-6.12,7.78-6.12a7.56,7.56,0,0,1,6.41,3.39A14.67,14.67,0,0,1,86,319.83a15.47,15.47,0,0,1-1.29,6.47,10.84,10.84,0,0,1-3.55,4.4,8.3,8.3,0,0,1-4.89,1.61V325a4,4,0,0,0,3.15-1.53,6,6,0,0,0,1.1-3.79,5.61,5.61,0,0,0-.83-3.34A2.64,2.64,0,0,0,77.48,315.18Zm0,28.16a2.48,2.48,0,0,0-2.22,1.42,15.53,15.53,0,0,0-1.47,4.49Q71.63,359.57,65,359.56a7.91,7.91,0,0,1-6.41-3.18A12.85,12.85,0,0,1,56,348q0-5.5,2.6-8.79a8.14,8.14,0,0,1,6.73-3.31v7.72a3.69,3.69,0,0,0-2.73,1.07,4.48,4.48,0,0,0-1.09,3.34,4.63,4.63,0,0,0,.88,3,2.8,2.8,0,0,0,2.25,1.07,2.42,2.42,0,0,0,2.08-1.21,13,13,0,0,0,1.36-4.11A33.38,33.38,0,0,1,69.38,342q2.25-6.1,7.78-6.11a7.56,7.56,0,0,1,6.41,3.39A14.62,14.62,0,0,1,86,348a15.44,15.44,0,0,1-1.29,6.47,10.94,10.94,0,0,1-3.55,4.41,8.29,8.29,0,0,1-4.89,1.6v-7.32a4,4,0,0,0,3.15-1.52,6.06,6.06,0,0,0,1.1-3.8,5.61,5.61,0,0,0-.83-3.34A2.66,2.66,0,0,0,77.48,343.34Zm-6.17,40.09a10.91,10.91,0,0,0,6.31-1.55,5.6,5.6,0,0,0,0-8.82q-2.16-1.57-6.89-1.58a10.7,10.7,0,0,0-6.26,1.58,5.14,5.14,0,0,0-2.21,4.43,5.07,5.07,0,0,0,2.21,4.39Q66.69,383.43,71.31,383.43Zm-.56,7.72a17.06,17.06,0,0,1-7.67-1.66,12.12,12.12,0,0,1-5.21-4.75A14,14,0,0,1,56,377.49,13.15,13.15,0,0,1,59.6,368a14.4,14.4,0,0,1,9.73-4.14l2-.05q6.64,0,10.69,3.71a14.42,14.42,0,0,1,0,20q-4,3.72-10.9,3.72ZM79,411.08v-17h6.44v25H46.56v-8Z"/></g></svg>