<?xml version="1.0" encoding="utf-8"?>
<!-- Generator: Adobe Illustrator 18.0.0, SVG Export Plug-In . SVG Version: 6.00 Build 0)  -->
<!DOCTYPE svg PUBLIC "-//W3C//DTD SVG 1.1//EN" "http://www.w3.org/Graphics/SVG/1.1/DTD/svg11.dtd">
<svg version="1.1" xmlns="http://www.w3.org/2000/svg" xmlns:xlink="http://www.w3.org/1999/xlink" x="0px" y="0px"
	 viewBox="0 0 400 400" enable-background="new 0 0 400 400" xml:space="preserve">
<g id="Layer_2" display="none">
	<rect x="0.3" display="inline" fill="#1C749B" width="400" height="400"/>
</g>
<g id="Layer_1">
	<g>
		<g>
			<path d="M204.2,95.4c-57.8,0-104.6,46.9-104.6,104.6s46.8,104.6,104.6,104.6c57.8,0,104.6-46.8,104.6-104.6
				C308.9,142.2,262,95.4,204.2,95.4z M203.1,267c-36.3,0-65.7-29.4-65.7-65.7c0-36.3,29.4-65.7,65.7-65.7
				c36.3,0,65.7,29.4,65.7,65.7C268.8,237.6,239.3,267,203.1,267z"/>
			<path d="M88.4,113.9H84l1.3,46h-5.3v-46h-3.9v46.3h-4.4v-46.3l-4.3,0v46.3h-5.2l1.5-46.3h-4L55,153.1c0,0-0.1,1.5-0.1,2
				c0,6,2.8,11.4,7.2,14.9c14.4,16.3,4.6,32.9,4.6,36.8c0,4.4,0,71.6,0,71.6c0,0.1,0,0.1,0,0.2c0,4.1,3.3,7.4,7.4,7.4
				c4.1,0,7.5-3.3,7.5-7.4c0-0.1,0-0.1,0-0.2h0c0,0,0-66.4,0-71.4c0-4.6-8.3-23.7,5.6-37.9c0,0,0-0.1,0.1-0.1
				c3.4-3.2,5.6-7.6,6-12.6c0-0.3,0-1.2,0-1.2L88.4,113.9z"/>
			<path d="M345.6,224.9c0-4.4-0.1-111-0.1-111l-2.4,0c0,0-19.8,11.2-19.8,94.2c15.2,4.2,8.8,20.8,7.7,22.9c0,4.2,0.3,47.6,0.3,47.6
				l0.1,0c0,0.1,0,0.1,0,0.2c0,4,3.2,7.2,7.2,7.2c4,0,7.2-3.2,7.2-7.2c0-0.1,0-0.1,0-0.1l0,0C345.7,278.7,345.7,229.8,345.6,224.9z"
				/>
		</g>
	</g>
	<g>
		<g>
			<path d="M204.2,95.4c-57.8,0-104.6,46.9-104.6,104.6s46.8,104.6,104.6,104.6c57.8,0,104.6-46.8,104.6-104.6
				C308.9,142.2,262,95.4,204.2,95.4z M203.1,267c-36.3,0-65.7-29.4-65.7-65.7c0-36.3,29.4-65.7,65.7-65.7
				c36.3,0,65.7,29.4,65.7,65.7C268.8,237.6,239.3,267,203.1,267z"/>
			<path d="M88.4,113.9H84l1.3,46h-5.3v-46h-3.9v46.3h-4.4v-46.3l-4.3,0v46.3h-5.2l1.5-46.3h-4L55,153.1c0,0-0.1,1.5-0.1,2
				c0,6,2.8,11.4,7.2,14.9c14.4,16.3,4.6,32.9,4.6,36.8c0,4.4,0,71.6,0,71.6c0,0.1,0,0.1,0,0.2c0,4.1,3.3,7.4,7.4,7.4
				c4.1,0,7.5-3.3,7.5-7.4c0-0.1,0-0.1,0-0.2h0c0,0,0-66.4,0-71.4c0-4.6-8.3-23.7,5.6-37.9c0,0,0-0.1,0.1-0.1
				c3.4-3.2,5.6-7.6,6-12.6c0-0.3,0-1.2,0-1.2L88.4,113.9z"/>
			<path d="M345.6,224.9c0-4.4-0.1-111-0.1-111l-2.4,0c0,0-19.8,11.2-19.8,94.2c15.2,4.2,8.8,20.8,7.7,22.9c0,4.2,0.3,47.6,0.3,47.6
				l0.1,0c0,0.1,0,0.1,0,0.2c0,4,3.2,7.2,7.2,7.2c4,0,7.2-3.2,7.2-7.2c0-0.1,0-0.1,0-0.1l0,0C345.7,278.7,345.7,229.8,345.6,224.9z"
				/>
		</g>
	</g>
</g>
</svg>
